<mxfile host="app.diagrams.net" modified="2023-05-15T09:33:11.385Z" agent="Mozilla/5.0 (Windows NT 10.0; Win64; x64) AppleWebKit/537.36 (KHTML, like Gecko) Chrome/112.0.0.0 Safari/537.36" etag="hZ3vKR6sm8tl281L9jO_" version="21.2.9" type="device">
  <diagram name="第 1 页" id="ghhC6vAAOEv43L0yZ3g4">
    <mxGraphModel dx="1050" dy="586" grid="1" gridSize="10" guides="1" tooltips="1" connect="1" arrows="1" fold="1" page="1" pageScale="1" pageWidth="827" pageHeight="1169" math="0" shadow="0">
      <root>
        <mxCell id="0" />
        <mxCell id="1" parent="0" />
        <mxCell id="L5BF_w7w9N1c1NZYFQ7X-1" value="" style="shape=image;verticalLabelPosition=bottom;labelBackgroundColor=default;verticalAlign=top;aspect=fixed;imageAspect=0;image=data:image/png,iVBORw0KGgoAAAANSUhEUgAAAT8AAAD6CAYAAADX9EAYAAAACXBIWXMAAA7DAAAOwwHHb6hkAAAAGXRFWHRTb2Z0d2FyZQB3d3cuaW5rc2NhcGUub3Jnm+48GgAAADF0RVh0QXV0aG9yAE1hdHBsb3RsaWIgdjMuNy4xLCBodHRwczovL21hdHBsb3RsaWIub3JnL3GUQAEAAAAodEVYdENyZWF0aW9uIFRpbWUAMjAyMy0wNC0yNFQxMjo0OTo0NS45NjM4MDfXtfIhAAAgAElEQVR4nOzdd3hUVcLH8e/0kkx6QnohQAhFQu+RDioKuBZeG8paVgVUBEVdu6Kri2Xtii4WQGRtoIKAIBECAhJq6ClAepmU6fX9Y2RgTAIJBBLI+TwPD7ntzLmTmV/ObedI3G63G0EQhDZG2tIVEARBaAki/ARBaJNE+AmC0CaJ8BMEoU0S4ScIQpskwk8QhDZJhJ8gCG2SCD9BENqkCxJ+drudvLw8zGbzhXg5QRCEM2pS+M2aNYv+/fujVqsZN25co7b55ptviIqKIjU1ldDQUF599dWzqqggCEJzalL4uVwupkyZwpgxYxq1fn5+PjfffDPPPPMMRqOR77//nn/+85+sXr36rCorCILQXCRn82zvtGnTOHz4MCtXrjztei+++CLz588nNzfXO2/ixIloNBoWL17c9NoKgiA0k/N6zu/AgQMMGDDAZ97AgQPZv3//+XxZQRCEM5Kfz8KLiopISUnxmRcWFkZRUVG967/99tu8/vrr3mm9Xo/dbicyMvJ8VrNFuN1u3G43Uqm44H6Cy+VCIpEgkUhauiqtgviM1FVeXs7kyZN57733zrms8xp+CoUCp9PpM89ut6NQKOpd/29/+xsDBw70Tn/zzTesXLmSl1566XxWs0UUFxdjs9mIj49v6aq0GtnZ2SQkJODn59fSVWkVamtrOX78OKmpqS1dlVbj6aefJiYmplnKOq/hFxUVRWlpqc+8srIyoqKiGlz/1GUHDhzgjz/+aPQFlovJoUOHMBqNpKWltXRVWg2pVErv3r0JDg5u6aq0CuXl5ezevZvhw4e3dFVajf/85z8EBAQ0S1nntT2dlpZGRkYGDofDO2/t2rX07NnzfL6sIAjCGTUp/DIyMli6dCmHDx+muLiYpUuX8tNPP3mXv/vuu/Tq1cs7feuttyKVSrnvvvvYt28fr7zyCpmZmUybNq359kAQBOEsNOmw98cff2T79u0AhIeH8+GHHxIZGcmVV14JQGBgIHFxcd71g4KCWLVqFQ8++CBDhgwhISGBb7/9lu7duzfjLgiCIDRdk8LvX//612mX33zzzdx8880+83r06MG6deuaXjNBEITz6Lxe8BCEi1nhh4U49A6cBiduu+dZAKlGilQtxT/Nn5CxIS1cw5McNQ5wgzyw+b/Sbocbw04DqlgVynZKAGxFNoz7jCjDlSjCFbgsLtwuN/JAOYrQ+u/maG1E+AltivWYlZLFJViPW3Fb3fj39Mc/zR/TAROGLAMd3ujgXbfgzQKM2cZ6y4m5L4aQsSHsn7IfpCCRSXDWOlFGK1EnqdEkafBP80cVpwLAVmrDfNDsCQYZWI9bseZbsZXakMgkxM06ebro+JvHcZldWGQWJEckHPzyIOYjZpwGJ5F3RBJ9TzQAeU/nUfTfIuwldlw2FwCqaBXaLlpCrwol9sFYb5nVmdUEDgzE7XBj3GvEXmFHEa5AGaFEGekJNLfTzZGHj1C1vgrjbiNSrRR5gBxHtecPQMe3OxJzv+c2E/06Pftu3lfnfZEqpcRMjyHx6URkOpl3vr3cjnGvEUu+BZfFU1dntZOY6TFI1Z5LD4XvF1K7vRZ7qR1bqQ17qR3+fP4saHgQ7T9sj5vmG2xShJ9wSbDkWTj60lGMe4zIAmXIA+W4nW4cegdh14QRM93zpbUV28h5NKfBcmIfiEWdpAYgZnoMljwLMj8ZEqXnxmuX2YXL4iJgUABuu5uSxSXeVuFfdXq3E9H3eoKqckUl+29v4MkmKT7hV/JZCbXba73ThRR6fw4effI2ILfbjfWYFQCZnwy304210Iq10Iqj2uENP8MOA1lDslDFqLCX273hc2K7oYahgCfAK3+uxLTfBICz1omz1nOfrqaDBons5M3n8iA5QelB2MvtOGocSKQSJHIJ5jwzpUtKSXw2EYCaTTXsvmY39nJ7vbseclUIfl0893Xqf9FT9r8y7HI7BSEF5IXnkReeR354PiWBJeS9lEeatfluDRPhJ1wQToMTmf+fLQE3VKyoQNlOibKdEnmwHJmfrN7tKldUol+rx1Zk83zRJSBRSJAqpUTfH03olaEA7L1hL7Vba+st40RrBECdrCb2wVjUCWrcLjeGHQYMOwyoolSETghFHnTyKxH9j+jT7pPb7qb78u5YC6y4HW7kOjnW41YseRYs+RZU8SrvuvIAOQEDA3BUOnA73SijlGiSNCijlN73hD+zJWZGDKZ9JgzFBioNlXQc1hFNBw1uu6elekLMvTFE3BCBJlmDVCPF7XJjzbdi2G3g1AaSrciGKlblff+0nbSoYlWe1lWZHafR6X3/k/+djMxfRkC/AFw2F84aJ1K1FEW476Fs6JWh3vf+VIYsA/Zyu7c8ebAce7kdeYAcbWctmhQNMo1nWa1fLRnVGeRuzSW7LJu9Q/dyoMcBipz1PwEmdUqxOC2n/Z00hQg/oVGqM6sx7TVhr7DjqDp536aun47wa8O90/ZKO7ZCGw69A3u5HXOOmZLPS1Anqen2bTfAE4S7r9rtU75ELkHuLyfv8jxkj3u+fKYDJnaN3wUu6hUxOcL7c8LjCZR9U0bkrZG4rC6cRicSqQRZoMx7WAegCFHQ4fUO9RXXZBKFpNHn/cImhRE2KaxR60ZOiaTGWkNRfhFZ2Vk4LnPgdDupsdYQaA1kDJ6b/pVRSt4/+j7m7WYeHvgwcqkcdZKaT8o/YWfJTvjhZJnut904Kh3IAmRIlZ7DTLvTjsFmgJ9gwcQFaBWew+W3trzFnl/2ML3fdLrFeX5nG45uYOOxjQAEqgKRSqRIJVIC1YEA1FhrMNgM1FprMUgM6H/Q8/DAh+nYoSMDCwby3tH3eHfruzwy+BHu7HUnAB9nfcydy+6ss/9quZqU0BQ6h3Wmc1hnUsNTSQlNISUsheu3XN+o97AxRPi1UW6HG6fJiUPvwHTAhOWIBanG8xdeEaZA11uHRC7BUeVgx/AdGHYYfLZ3yByYlWZi5sZQq6/FZDeR90EeOR/nYJd5DnEUTgUdizqisWmwl9kx1BiwK+2orCpCrgjBVuQ5r2PX23GZXVAF1d9X47jHE67aFC1xD8Yh9ZOi6aBBFaNCIpPgdrhxWV0+raCwiWGETawbLmaHmVx9LrmHcsnR53h+rvL8bLCd3Kf7+97PzIEzAcjIz+CO7+8gPSGd/074LwB6i54+H/ZBLVejU+oI1YYSqgn1+T9MG0aYNsxnvlqubvh34Hbz9ta3KagpoLC2kOM1xykyFHGs+hhG+ynnGnee/DE1LJXs+7O900+sfQKDzcB9fe9Dp9QB8L/s/7Eur2l3WHxw9QdoFVoAlh1YxpqcNVzX5Tq6RXjCb8XhFcz9bW6TypzYeSKdQjuhilahP6jnUOUhjtcc9y6/rN1lDIkfQmpYKilhKaSGpdI5rDOJQYlIJef/eWYRfm2Iy+xCqvF8qKoyqtg5cmeD65ZklrCqbBXvXPkOMj8ZynZK3rn1Hb73+x6j5JQvZjXwn1M2vMO3nK9Kv6J3em/CJoUxfc103t36Lm9d8RbTfvLc6L54z2Ie/+VxpEiRmWTo7DrCysIIXBpIoDoQ/zH++Cs9/4LVwehUOnpH9aZTaCcADDYDxYZiNAoNMTrPoe2Wgi089PND5OpzKTLUfwj1V1WWKu/PRruRHH0OKaEnO+Vwupzk6Bs+V1ifEUkj+OW2XwA4oj9C+n/TCVYHs+e+PQBIJBKeWveUz2ufoFVoifaLxs/tR3houKeVpQok0t+3k48Z/WfgdDmRS09+le/tey+Tu00+Y/3kUjk6lScw/RQnn6ee0X8G13e5nq7hXb3zBscN5tHBjwKe98qNG6fL0xoF0Kl03t9TgCqAQFUgncM6n6xTn3u5ufvNhGlP/oHqG92X3+747Yz1PF9E+F2E3A43hl0GarfWYtxlJOqeKPwv87SCLPkWarfU4qh24Ha4sZfbsZfbqd1ai6ajhs4LPB9It82NPECOzF+GJkVDTccaws3h2MvtOGucPLT9IXaU7+C6Ltcx/IvhKKOUfL7mc4zbPMGnkCrwV/qjkqvQKrSo5Wo0cg1ahRaV3HOuy+KwkDY9jYgQz+GpVCL1BtgJ1ZZq8qryfHcwl9N658p3vOH3v+z/ccf3d/BA/wd4Y9wb3tfJPJYJgFKmJCEwgfbB7UkKTiIpKMn7c7D65MWDYM3Jny9PuJwjM454W0Inlh+ZcQSLw0K1tZoKUwUV5goqTBWUm8q9/07MqzBX+ARViCaEwtpCjDbfq8cPDXgIqURKXGAcUf5RxATEEBsQS6AqsFHP9r444sU6867vcm6Hhld3urrOvCs7XsmVHa886zIj/SPrBHdLE+HXClRvqMaw0+A5UZ5nwXrUCjLolfnno4JuOHDPASx5FmyFNiy5Fpymk73laLtqveFXuqS0wauZ5hwzjhoH8gA5wWODUe9Ts+zAMn44+ANZxVkcnH6Q1BBPDyIP7HiAMlMZ3SO6ow7wHLrNGzOPf436FwGqs3uw/K0r3uKtK97ymXdHzzsY22EsLreLVRmrSOiQgEQlwWAzoDfrMdgM3n/V1mpqrDV0Ce/i3V4qkdI+uL3P4WWX8C78evuvtA9uT4wupsmHUFqFlvbB7X3mySSyOvOaIlgdzLGHjtHOv53P/Kcuf+qsyxTOjQi/FuQqcbFn4h7Kvy+vs0yqkp68AiiBih8qsBXZvMs1HTUE9AvAv6c/QcOCvPMVwQrCrw9HHiBHIpMgD5F77ueKVOJ3hR8/l/zMsgxP4BXWnryFQqfUsa9sHx1DOgJwe9rtdep0akuouahkKpKCkgDo6NeR3tFN69Xlth63cVuP23zmaRVaLk+4vFnr2RxiA2LPvJJwwYjwOw8K3iqg+PNiFGEKFCEKZH4y5MGet1oRoSBupueeLsdOBzXf1yAPkBMxOQJ1khp1ghpVvAp1ghq7y05uVS6HKw+z/ent5LnyOMYxnCons9Jn0b9DfwCWH1zOfz7/D1d3upoZd80g6q4ojuiP8Niax7x1MtgMrH9vPSa7yTsvPjCe8Z3Gc03KNQxLHIZKpkIQ2goRfs2gZksNUqXnkScA035Tg/ecaVO03vBTjlES6YxEdoOMXe5dHKo4xKHKQxzOO8yhPw6RX52Pw+Wot5xbDLd4fz5afZQ1OWt8TtBXmCpYmr3UZxsJEvpE9+GalGu4utPVpEWKvgSFtkuEXxPZy+wc+/cxShaVIPOXoQhVULu9FkWYgt5be6NspyTh6QTa3dIOe6UdR6UDp9lzSwnAjsAdPPbLY3RRdaG7f3fiH4vn052fcvt3t9d5LalESmJQIh1COtAxpKPn/9COaOQaukacvBJ3Tco1pISmEBd48imB5JBkvrr+K++0TCJjQOwAonWnv3FXENoKEX71MO42Uvh+IdbjVpRRSjq977myWL2xml3jduE0OOtsE3plKIoQBU63k3x5PruCdrHXtpc9pj08POJh+sd4DlEXrF/Ay7++zF1d7qJ7R0/XXt0jujMyaaQ33DqEdKBTaCfaB7dv1KFoXEAccQFxPvNCNaHnfNVPEC5lIvz+oub3GnaN3YWj2tNS03TUeJfpeumQB8gJGhZE/KPxEAy/5/zOFtMWDqkOsee/e9hXtg+zw+xT5pD4Id7wG9thLA6Xg1TVyXEZekX1Ys1tay7A3gmCcIIIv1PUbKph17hdOGochE0KI/K2SJTRJx+NkmqkRG2K4uuCr1mbu5aM3zJ8nhI4IS4gjq4RXeke0Z1uEd1IT0j3Lusf05/+Mf29Y3gIgtAyRPj9qfjTYg5NO4TT4CTi/yJI/SwViVxCdlk21mIrPSM9444c4xizVs3ybpcalsrliZeTFplGt4hudA3vSpA6qKGXEQShlWiT4WfJtXD05aO0u60dgYM9D2Y7DU6cBifBtwaT+t9UJDIJS/YuYfL/JnNFhyv46WbPWCX9Y/pzd++7SU9IZ0TSCKL86x+JThCE1q3NhZ9hh4EdI3bg0DuwFlrpvrw7JcYSPm7/MQteXcDY1LG8J/MMiJyekE60Lpr4wJNj6yplSj4Y/0FLVV8QhGbSpsLPtM/EzjE7cegdhF4ZSuVjldz67a0s3bsUq9PTKWRWUZZ3/Sj/KApmFrRUdQVBOI/aRPhZC6zUbqnl0LRDmPQmtty2he8Hf8/W1VsBzz1wE1ImMK3fNEYkjWjh2gqCcCG0ifDLfy6f3Yt3s7z3cpbdvgy9Ug9Fnk4Zp6RN4aEBD5EYlNjS1RQE4QK6pMLPfMQzfkDF9xUkPp9IyJgQdhTv4J8d/8mKmStwSTxdAveK6sW0ftP4v27/d9rOJgVBuHRdEuHnsrrIvjHbp3eUoo+KCBkTgt6i50fjjyjlSiakTODu3nczqv2oFqytIAitwcUffm7Yf8d+yr8vR6aTcfzG4xwecJjHb3gcgOGJw/nPFf/h+i7Xt7rOFAVBaDlnFX6lpaX4+fnh5+d35pXxjFVQVlZGSEgIcnnz5m3OEzmULi5FppMRuzqWK365AtNxE/1L+zNG5xnoZXq/6c36moIgXPya1MXt4cOH6d27N7GxsQQGBnLbbbdhs9lOu80zzzxDQEAASUlJaLVabr/9diyW5hl+zmlyUvFDBRK5hK5Lu5LUP4mXRr3EPX3uEVdtBUE4rUaHn9vt5oYbbiAxMZHKykoOHjzI+vXree655xrcZvny5cydO5fly5djNBrJzs5m1apVzJs376wq66h2sH/KfiqWVwAg08ro+mtXFIsV3iEEp/ebzntXveczoIsgCMJfNTr8tm3bRlZWFi+//DL+/v60b9+emTNnMn/+fNzu+kes37t3Lx07dmTYsGEAdOjQgeHDh7Nnz54mV7Qqo4ptPbZR/Fkxh2Ycwu1wo7foGb98PFfnXM3BioNNLlMQhLar0eG3f/9+wsPD6dixo3feoEGDKCkpobKyst5thg8fTl5eHn/88QcABQUF/Pbbb4wePbpJlbRX2tk1dheWfAu6vjouW3kZObU5DJw/kHV561DJVL7jnAqCIJxBo48Ni4qKCA0N9ZkXFhbW4DKA/v37M3/+fIYOHUpQUBAVFRXMmTOHqVOn1vsa8+fP5/333/dOV1ZWEhgYSObnmbgtbkgGw8sGFhxcwD+/+Sd6m572fu15qftL1ByoYf2B9Y3dnRZntVpxOp1UV1e3dFVaDbPZTFZWFjKZrKWr0io4HA7MZjPr1188n+vzzWw2n3mlRmp0+MlkMlwul888p9PTo3FDV3C3bdvGvffey7PPPsvll19OdnY2s2bNIjU1lcmT6w6qPHLkSBITE73Ta9euJTMzk0hLJEUUEdw/mG3abTyc+TAWp4VhccOYP3Y+AcqzG0qxJRUUFGCxWEhOTm7pqrQa27dvJykpCX9//5auSqtQXV1Nbm4uXbp0OfPKbYRSqTzzSo3U6PCLioqirKzMZ96J6aio+rt1mjdvHsOGDWP27NkA9OvXj7y8PJ5//vl6wy8pKYmkpCTvdGlpKdu3b0eSLwHgu8u+47lVz+Fyu7ir1128e9W7F+2FjaqqKgDCw8NbuCath0wmIygoqElDV17KJBIJcrlcfEZO0ZxHBY0+59ejRw/0ej07duzwzvv1119JSkoiMDCw3m0cDgdqte/jYyqVCoej/hHJGuIOdPPKra/wjOUZJEh4edTLfHj1hxdt8AmC0PIaHX5du3Zl9OjR3H///ezbt4/Vq1fz6quv8sADD3jX+eCDDxgwYIB3evz48Xz77bcsWrSIoqIiVq9ezVtvvcXVV1/d6Ao6XA7+0fkfrEhegZ/Cj29u/IZHBz/a6O0FQRDq06Sm06JFi7j//vvp378/Op2OBx98kBkzZniXq9VqgoJOduE+ZcoUqqurmTt3Lvfccw/t2rVjypQpPPXUU41+zV0luyjLKyNGF8Pym5Z7u5MXBEE4F00Kv7CwMJYsWdLg8ilTpjBlyhSfeTNmzPAJyKZyu930iOjBj7f8SIwu5qzLEQRBOFWTHm9rCR3pyEsPvYT1RWtLV0UQhEtIqw8/hVmBxqrxGUJSEAThXLX68HOZPPcW+nVtXA8ygiAIjdHqw89p8txILcJPEITm1OrDDycoQhUoI8VhryAIzaf1hx+i1ScIQvO7KMJP21Xb0lUQBOES0+rDT9NZQ9Tf6392WBAE4Wy1+vBThCjQ9da1dDUEQbjEtPrwEwRBOB9E+AmC0CaJ8BMEoU0S4ScIQpskwk8QhDZJhJ8gCG2SCD9BENokEX6CILRJYgQg4ZJns9morKzEYrHgdrtbujqNZrVa0Wq15ObmtnRVLhiFQkFwcDB+fuf/eX4RfsIlzel0kpubi1KpvCBfqOakUqlQKBQXXb3Phc1m4+jRo8TFxZ338ZtF+AmXtOrqaqRSKQkJCUilF9dZHofDgdlsRqdrW493FhQUUFlZed7D7+L6NAhCE9lsNlQq1UUXfG2ZWq3Gbref99cRnwhBEFoViURyQc7NivATBKFNEuEnCK2MXq/H4XCcczlGo5GePXty7Nixsy7jiSee4LXXXjvnurRGIvwEoZWJjIxky5Yt51yORCIhMjISmUx21mXk5eVx/Pjxc65La3RW4WcwGLBamzaIuN1up7q6+mxeThCEUxQVFVFTU+OdNhgMFBQU1FlPq9WyYsUKoqOj6yyrra2lvLz8rOug1+sxmUz1Ljtxu8qpdTzBarVy9OhRamtrz/q1m0uTwi83N5dBgwYRGBiITqfjrrvuOuNVmaqqKm699VZ0Oh1BQUGEhoby888/n1OlBeFS1bt3b2w2G+PGjSMiIoKpU6cCcMUVV/DYY4/Rs2dPkpOTee211ygoKKB79+5ERETQs2dPgoOD+eijj7xl1dbWotFoOHLkCACfffYZ6enpzJ49m+joaKKiokhPT6eqqqrR9du8eTOpqanEx8cTGhrK8OHDKSws9C5/5plnCAkJYciQIURFRTFkyBDvskcffdS7rF27dowbN+5c365z0uj7/NxuNzfeeCORkZGUl5dTXFzM6NGjmTt3Lk8//XS927hcLiZNmoTFYiEzM5MOHTpw4MCB837/jiCczp6CavIr62+1nC8jO0egVpz58POPP/5ApVKxcuVK+vXrh9lsBjxB9v7777N8+XKGDBmCxWLBZDLx0UcfMWDAAAAyMjK48sorSU9PJyUlBbfbjcViweVyAZ5WV2ZmJiNHjqSqqoqqqioGDRrEu+++y+OPP37GulksFiZPnszEiROZN28eRqORiRMncu+99/L9999z6NAh5s6dS3Z2Nh06dMDtdpOVlQXAjh07eOedd9i3bx/x8fG4XC527tx5tm9ns2h0+G3fvp2tW7eyb98+goODCQ4O5uGHH+bVV1/lqaeeQiKR1Nnmp59+YtOmTRw5coSYmBgA+vbt23y1F4SzsHjLMRb+nn9BX3Pz4yOJbET4nc5NN93kbUmp1WrUajUDBgzg4MGDFBYW4nA4SEhIYOPGjaSkpNRbRnBwME8++SRSqZTQ0FAmTZrkDagzWbt2LeXl5cydOxeZTEZAQABz585l4MCBlJeX43A4cLvd7N27l8TERORyOb169QI8N2w7nU727t1LTEwMMpmMnj17ntP7ca4aHX7Z2dmEhYXRuXNn77whQ4Ywc+ZM9Ho9ISEhdbbZuHEjAwYM4MiRI7zyyiuEhITwt7/9jW7dujVP7QXhLHSLCeCq7hd2REC1/NyCDyA5Odlnuri4mKuuuoqqqio6d+6Mn58fFRUVlJaWNlhGTEyMzw3fAQEBjT7/lpeXR1xcHFrtyaFkT+RBXl4effr04ZlnnuH2229HIpEwatQoZs6cyYABA+jTpw8zZ85k8uTJKBQKRo8ezezZs73h2BIaHX5FRUWEhob6zAsLCwOgsLCw3vDLzc3l8OHDTJ06ldtuu42cnBz69OnDsmXLGDNmTJ3158+fz/vvv++drqysJDAwkPXr1zd6hy4WVqsVp9MpLgKdwmw2k5WVdU5XJ/9KqVSi0+l8vuDjU4MZnxrcbK/RKE4LtbWWRq9uMpkwm824XC5qa2txOp04HA6f/XjhhRcIDw9n3bp13iOvE4fEtbW1GAwGwHPLS21trbdjh1PLsFqtdco9ld1ux2azec8fVlVV+ax74kqwSqWitraWGTNmcN9997F582Y+//xzRowYwY4dO4iKimLOnDnMnDmTzMxMPvvsMy6//HL27t1LcLDv76K2tha9Xl/v9/7EaYDm0Ojwk0qlde66djqdAA1+WN1uNyUlJRw6dIjExETA82F88skn6w2/kSNHetcDTzM7MzOTLl26NLaaF42CggIsFkudv+Zt2fbt20lKSmrWc8InrjhqNJpmK/N8CwoKwmQyoVQqsVqtaDQapFIpCoXCZz+qqqp8WmK7d+9m79693HDDDWg0Gu/FSLVajUajQalUIpFIfMpQKBTIZLIG3x+5XI5cLkej0TB06FAqKirYtGkTI0aMAODrr78mISGBTp06YbfbUavVAIwePZr09HS++uorysvLiY6O9tbjiiuuYODAgYSHh6PX6+tcjdZoNPj5+flkwQlKpfLs39i/7ltjV4yKiqpzafzEdFRU/YcQ0dHRxMXF+ezE0KFDWbx4cb3rJyUlkZSU5J0uLS1l+/bthIeHN7aaF40TV9guxX07WzKZjKCgoDotgXPhdDqx2WzI5RdPHx4TJkzg/vvvp1+/fvTo0cN7Tl0qlfrsx+TJk7nuuuuQy+Wo1WpWrFhBSkqKd70T68pkMuRyOVKpFIlE4lNGffNOderrdujQgccee4zrrruOKVOmoNfrWbp0KUuXLkWlUrFq1SoeeeQRRo0aRWhoKGvWrCEtLY3evXvzzTff8OKLLzJixAhCQkJYsWIFgwcPplu3bnUaT3K5HKVSWe93ozmPChr9ibjsssuorKxk165dXHbZZQCsX7+e+Ph4goKC6t2mR48efPLJJ9hsNm9iFxcXExER0QxVF4RL0wcffMCWLVvIz8/3/iF4/qnh7l8AACAASURBVPnniY2N9Vlv/PjxrF+/ntWrVxMQEMCvv/7KwYMHvd8vrVbLl19+6W2c/PXICmDSpEkMHTq0wbpMnz7d25oDePbZZxk7diwbNmygc+fOPPnkk96LK6NGjeKNN95g165dGI1Gpk2bxqRJk1CpVEyYMIGAgAD27t2L2Wxm9uzZTJgwoVnDrMncTTB8+HD35Zdf7j506JB7/fr17tDQUPerr77qXT5//nx3enq6d9pgMLhjY2Pd06dPdxcVFbk3bNjgjo6Odj/77LONer2FCxe6x44d25QqXjQOHjzozsrKaulqtCqrV692V1ZWNmuZRUVF7vz8/GYt80Kx2+3umpqalq7GBVdRUeE+dOhQvcuuuuoq95tvvtksr9Okm5wXL15MUFAQ3bp149prr+Wee+5h5syZ3uUnmsgn+Pn5sXLlSnbs2EF8fDw333wzd955J4899ljzpbcgCMJZaNKJkHbt2vHdd981uHzq1KneO9JP6Nq1KxkZGWdXO0EQhPNEdGwgCEKbJMJPEIQ2SYSfIAhtkgg/QRDaJBF+giC0Sa0+/C6eIaYFoXVxuVxs27atyR0PtxWtPvwKq5rvQWZBuBjMnz+fkpKScy7HYDDQt29fjh492gy1uvS0+vArrrZQVN343jAE4WJ3//33e3tfPhdarZavv/663m7shSbe5NxSDpXUEhWoPvOKgnCRW7FiBS6Xi7Vr13L06FFCQ0MZPXo069atIzY2Fr1ez8qVK0lPTyc9PZ0tW7awefNmqqqq6Nq1K5MmTfLppOBEt1gAOTk5HDlyhN69e7Nw4UKMRiNXXXUV3bt3b7A+VVVVrFmzhuzsbPz9/RkxYgRpaWk+65hMJn788Uf27dtHYGAgo0eP9umJ6bfffmPr1q2YTCb69OnD6NGjW/aZ3j+1+pYfwHG9OPQV2obMzEzvubpffvmFXbt2AfDkk09yxx13cPfdd3s7LD148CB33XUXubm52Gw2b68pJ8LOZDJxyy23UFxcDMAvv/zC3XffzZgxY9i3bx9ZWVn07duXP/74o8H6vPTSS3zxxRdYLBYOHjzIsGHD+PTTT73LCwsL6dGjB3PnzsVoNLJv3z7v46tut5s77riDCRMmcPjwYWpqanj66adbzWH4RdHyO3aBx1sQLn3H3zxOxQ8V9S7TtNfQ6YNO3uldV+zC7aj/0lvM/TGETfR06qtfrefoK3W/2F0Wd0ERpmhUvZ5//nleeeUVHnnkEZ8xPMDTyefWrVu9PSS5XC52797tXf7UU0/RsWNHVq9ezdixY+st/9ixY3z33Xf06NEDgGuvvZaPP/6Y3r1717v+Sy+95PO8/qhRo5g9ezZTpkwBYM6cOURERPDrr7+iUHj20f1nv58//fQTixYtYufOnT49wLvdreMy5sURfnoRfkLzMu03oV+jr3eZvYfviIT6X/S47fV/YcOuCfP+bC2y1lumy+o6h5qeNHHiRJ/OPKVSKdu2bWPJkiUUFRVhs9mw2WwcOHCgwfBLTEz0Bh9AWlraaccIttvtLFy4kD/++IOysjIMBgP5+flYLBbUajWZmZk8/vjj3uADvL1KZ2ZmMmzYMJ/gO3V5S7s4wq9SHPYKzSv2gVjC/1Z/R7Iyf9/zUZetuKzBe660KSfHswgZHUKP1T3qrNPYVt+Z/HWoiBUrVjB58mTmzJnDoEGD0Ol0HDx4EKPR2GAZOp3OZ1oul+NwOBpcf/LkyZSUlHD33XcTERFBSUkJK1aswGw2o1arKS8vr3cIC+C0y1qDiyP8RMtPaGbazlq0nbVnXhEIHtm4nqWVUUqUUefezbpMJvOetzudJUuWcPvtt3vPsblcLioq6j+UPxtGo5Fly5axZ88eUlNTAVi+fLnPOh06dGD37t1MnDixzvbJycl8/vnnuN3uVtPaO1Wrv+AhlUioNNowWhv+6yQIl5K4uDgyMjKorKw8bSsuKCiIrKws7xXdF154gaKiomarh0qlQqPRsHHjRsAziNmzzz7rs86UKVN44403vOs4HA42b94MwPXXX09OTg5z5871ti537drV6NHizrdWH35KuaeKx8QVX6GNmDdvHkuWLCE1NZXp06cDnsPVU7uTB3jkkUeoqamhXbt2hIWFkZ+fz/jx472DEUkkEvz9/b0XLFQqFQEBAT5laDSaBgeMksvlvPvuuzz44INERUXRq1cv7rjjDoKDg70tuWnTpjFt2jTGjx9PSEgIOp2O9957D/CMybNs2TK++OILdDodwcHBXHPNNZhMreNITuJuLZde6rFo0SKe+ve7OMY8xvwpfRiV2q6lq9RsDh06hNForHPPVFu2Zs0aevfu3awDGBUXF2Oz2YiPj2+2Mi8Uh8OB2Wyuc57ur4qLi/Hz8zvjemfLbrdTWlpKu3btTjsQVGFhIUFBQT7j+p5QXV2NzWZr1IBdlZWVVFZW0qFDhzrLxo8fz5gxY5gxY0bTdqIerf6cn1IuxYG46CEIDYmMjDyv5SsUCmJiYs643umeJAkMDGzOKjWLi+iwt3U0lQVBuDS0+vBTnQg/caOzIAjN6CIIP889V+KChyAIzanVh59StPwEQTgPWn34yaUSdGo5RquDKpP9zBsIgiA0QqsPP4DYYM+lc3HRQxCE5nJRhF9cyJ/hJw59BUFoJmcVfhaLBafT2dx1aVBcsOeOdXHRQxCE5tKk8Dt27BgjRozwPhIzffr00/YIcarNmzeTnJzMXXfd1eRKeg97RctPaAMGDhzo7cS0Obz66qs888wzzVbepaLRT3i43W5uvPFGAgMDKSkpobCwkCuuuILIyEieeOKJ025rtVq588470Wg03l5lmyIu5M+Wnwg/oQ3Yvn07BoOh2co7duwYNTU1zVbepaLRLb8dO3awadMm5s2bR0REBGlpacyaNcv7EPPpPPfccwwePJhBgwadVSVPnPPblFPBuDd/485Pt/Hl1mNYHc3TSaQgtBZTpkzB4XDw4IMPMm7cOF544QXA013Vq6++ysCBA0lKSmLSpEkcPnzYu93evXu5+uqriY2NJSkpifHjx1NeXs7SpUv57rvvWLVqFaNHj2b06NFUVlbW+9oPPvggaWlpxMbGMnjwYL777juf5UajkdmzZ9OnTx9iY2MZNWoUO3bs8C5fuHAhI0eOJC4ujrS0ND744IPz8A41n0a3/Pbu3UtoaKjPwCRDhw5l1qxZVFZWNthp4c6dO/n888/ZuXMnjz766FlVsn2YH0lhfuSWG9lfVMP+ohrW7CvhlZX7uXVAAv8YloxG0fIDoggXj3JTOTXWprWGonXRqOVqn+3DtGEEqDw9pRhsBkqNpXW2iw+MRy5t3Fdt9uzZLF68mHvvvZeuXbuiUqkAeOGFF1i4cCHvvvsuCQkJLFiwgGHDhnHgwAH8/Py46aabGD16NG+//TY2m43NmzfjdrtJT09n0KBBGI1G76FvQx0ghISE8MknnxASEsKGDRu45ZZbyMjIoFevXgBMmjSJsrIyXn/9deLj49m9ezd2u+f2s/nz5/PQQw/xxhtvMGzYMMrKysjJyWn8m9sCGh1+hYWFdXpkCAvzdOFdVFRUb/g5HA7+/ve/88YbbzSqp46FCxeyYMEC73RxcTFKpZKtv2/mxUFKqq1yKi1ujtU4+TnHQm61jTd/OcT/tuQwvbcf8QEXTwCaTCacTieZmZktXZVWw2KxsGvXLp8u0c+VXC7Hz8+vzmHknDVz+Hjnx00q65ebfqFfVD8Anlz7JO9nvc+rI17lHz3/AcCivYu4Z+U9dbY7cM8Bov0bN3xkYmIiEomE+Ph4UlNTcblclJWV8fLLL/PNN9/Qv39/T/3nzOGbb77hq6++4vrrrycvL48ePXoQGhoKeILqhODgYORyOSkpKYDnNFR9A5nPnDkT8Pwehg0bxtixY/nqq6/o1KkTO3fuZM2aNezYsYP27dsDMHLkSMAzPvDLL7/MrFmzuPHGGwFo164d3bp1O6vDd4PBQFVVVb3fDYul+YaxbXT4SSSSOgOPnJhuqJfWl156iaioKK699tpGvUbPnj19xijYsGEDWVlZJCYm1ln3tqGwo8DAv389Tk6Fmad+q+XewdHc0COCVthpbB1FRUVYrdZ6962tqq2tJTo6Gj8/v2Yr02AwIJVKvS2oE9rp2pEUlNSksnQanbeccP9wkoKSCPUL9c4L8Q+pt0ytWlvn9c9EoVCgUCiw2WwcP34cs9nMSy+95POHoaysjLy8PFQqFXPmzOGOO+7g3//+N+PGjePmm2/29r4sk8nqfQ/+6oUXXuDDDz/EarUSFBREZWUl/v7+qFQqjhw5QmRkpLfMU1mtVvLy8khPT2/yftbnRCeq9fUSc7outZqq0SVFR0dTXl7uM+/EdFRUVL3bvPjii9xwww3MmTMHgC1btmAwGJgzZw5PPPFEneZ3ly5dfA6r7XY7Bw4caLCrnOhoGJGWzPM/7GPh7/m8mVHAlgILr17Xg9g/b49prYxGI0ajUQwofYrs7GzCwsLOS39+f21NvjjyRV4c+eJZl/vciOd4bsRzPvOu63od13W97qzLPJVcLkcul2O3272dmP7zn/+sc4QVFRWFQqHgscce4/bbb2fFihUsXbqU119/nV9//ZVBgwYhlUqRSqWnbVF//fXXfPTRR2RkZNCxY0cApk6ditPpRKFQoNFosNvt9ZYhkUiQyWS43e5mabUrFApUKtV5D79GX/Do1q0bFRUV7NmzxzsvIyODuLi4Bj+sDz744Hn/cqsVMl6c1I0Pb+1NmL+KTUcqGPtGBh9ktO7zDYLQEK1W63N416FDBwIDA8nPz6d3794+/079fkVFRTF16lRWrFhB//79Wbt2bb3l1Sc7O5sePXp4g89ms7F+/Xrv8p49e1JRUcGmTZvqbCuXy+nevTvLli07p/2+0GTPNPIGoMjISNauXcvq1asZMWIE+/btY/r06cyYMYMhQ4YAsGDBAh555BFuvfVWwDPG56n/tm/fjlqt5pNPPmlU83j37t3s3LmTW2655YzrJkf4c13vWI7rzewtrGHTkQqu7x2LTt1854+aU2VlJXa7/bx3RHkxycnJITo62tsNe3MwGAw4nc5W2ZlmQ3799VdWr15NaWkpRUVF9OzZk9DQUB566CHMZjO1tbVkZmbyr3/9i9jYWIKDg7nyyisxmUyUlpby448/snjxYp588kni4+Opra3ltddew2Kx8Pvvv5OWluZzegk8V5Off/55dDodhYWFzJo1i/LychISEpg0aRIhISGUlpby1FNPoVQqKSkp4csvv8Rut5OcnExSUhKzZs2ipKQEq9VKRkYGP//8M+np6U3ef7PZjNlsrvc6wqJFi0hOTvae+zwXTWpDfvnll0ydOpWEhAS0Wi333HMPs2fP9i632WynHXAlLCzsvA5YHOKn5J2beyFZlMUPuwr5fFM+j17R+cwbCkIrsmjRIr744guOHz/uDYC77rqLlJQUli5dygcffEBoaCjp6el06dIFtVrNhAkT2LhxI99++y2xsbH8+OOPDB48GPCM9yuTydi2bRt6vb7e7+Dw4cP5/PPPWbJkCQB33nknKpXKZ9D0t99+mwEDBngbQSkpKXTq5BncffTo0WzcuJHPPvuMjz76iIiICG666abz/Vadk7Maw8PpdCKTnf8rq4sWLeKzzz5j5cqVTdou62gVk97dSKBGwebHR7bK22DEGB51iTE8fDV2DI9LzYUaw+Osnu29EMF3LnrGB9EjNohqs53lOwtbujqCILRCF0WvLmfjtkEJACzIzGvZigiC0CpdsuF39WXRhPoryS6sYWte/Y/zCILQdl2y4aeUS/m/fp7zPM8tz8Zku3BdcAmC0PpdsuEHcNfQ9iSG+rG7oJoHvszC6Wq147ML54lUKsXlEh1gXEwcDscFua5wSYdfoEbBf+/oS7BWyersEl78cV9LV0m4wE7c4FtTUyNCsJVzu91YrVZqamrQarXn/fWa71mRViopzI8Pbu3NLR//zicbc6m22Hnumq74qS75XRcAf39/goKCKCgoaOmqNFlbvdVFo9F4O005n9pEAvRLCuGNG9N4+KudfP3Hcf7I1/Pm5DR6xAa1dNWECyAyMpLQ0FCsVutF1fqrrq5Gr9fTuXPbuFFfIpGgUCi8zzKfb20i/ACu7B5Fp3Y6pi/OYl9RDX97N5OpQ5J4aHSnVnkTtNC8TvSScjGx2Ww4nU4CAgJauiqXpEv6nN9fdYjw5/v7B3Pn0Pa4gQ8zchjzega/51S0dNUEQbjA2lT4gecWmH9elcq39w2ma3QAxypNTPnvVhGAgtDGtLnwO+Gy2EC+nzaEm/rFY7E7mfrpNnYcq2rpagmCcIG02fADkEslvDCpG5N6xmC0OpjyyRYOlzbfqFmCILRebTr8AKQSCa9e34NhKeFUm+38sKuopaskCMIF0ObDDzwtwPSOnsGZymrrDuwiCMKlR4TfnyICPD1LL9qSz30Lt5Nb3nCnrIIgXPxE+P1pXNco7h/eAbVcxk+7ixj92nqe+HYPpaIlKAiXJBF+f5LLJMwem8Kvs4d5e4NZ+Hs+6a+s47kfssXhsCBcYkT4/UW7ADUvXdudnx9KZ1y3SKwOJ59syGXoK+t4/JvdrM4uweq4eB6REgShfm3m8bamSg735/1bepNdWMObvxxiVXYxi7YcZdGWo0QFanh0XAoT0mIuigHSBUGoS7T8zqBLdAAf3NqbVQ9dzoOjOtE5UkdRtZkHl+xg4rsb2VdU09JVFAThLIjwa6SOEf48OKojPz0wlH9f34N2AWp2Hqtiwjsb+XhDLudxRE5BEM4DEX5NJJVIuK53LOtmDeOm/vHYHC6e/yGbqQu2Um22t3T1BEFoJBF+Z0mrlDF3Unc+uq0PIX5K1h0oZcLbG9lfXNvSVRMEoRFE+J2j0V3asXzaELrFBJJXYeSatzfw4o/7RCtQEFq5swo/tzjB5SMmWMP//jGQm/rF43C6+ei3HC5/dR1vrDnEkTLRUYIgtEZNCr/CwkLGjRuHXC5Hp9Px8MMP43Q2PCTkDz/8wIgRI9DpdKhUKvr27cuaNWvOudKtkVohY+613Vk+fQiDkkOpMtl5Y81BRs5bz9jXM3h77WGOVppaupqCIPypSff5TZ48GaVSSV5eHgUFBUyYMIGIiAgeffTRetfPysriqquu4rXXXiMoKIh58+ZxzTXXsHv3bpKTk5tlB1qbrtEBLLprAJlHKvhm+3FWZ5dwoKSWA6sOMG/1ATpF6OgUqSNB62BIjLjNUhBaSqO/fTt37uS3335j9+7dxMXFERcXx6xZs3jrrbcaDL8nn3zSZ/rNN9/kiy++YN26dZds+J0wKDmUQcmhOJxufjtcxrIdhaza+2cQlnguinyulvKY+xiT+8a1cG0Foe1pdPjt2bOHkJAQunXr5p2Xnp7OI488gl6vJzg4+IxlVFdXYzAYiIyMPLvaXoTkMgnDUyIYnhKBxe7kQEkt+4tq+STjIAfKLMz5ehd7Cqp55pquyKXicRFBuFAaHX4FBQWEh4f7zDsxXVRU1Kjwe+CBB+jSpQtjx46td/nChQtZsGCBd7q4uBilUklmZmZjq3lRiANm93CzoUDKwgMuvticz9o9x0kOlhEXICc1VE77QFmbe3TOYrGwa9eui26UtfPFbrdjMpkuuc//ubBYLM1WVqPDT1LPN/HEVd/GXP194YUXWLlyJRkZGQ1+uHv27IlSqfROb9iwgaysLBITExtbzYtGUVERY7RWBnePYM4PRyg0OCg0OAEbABH+CrpG+uFwubHYXYT6Kbgs2o/uUf5E6RRolZfecJu1tbVER0fj5+fX0lVpFWprazl69Ogl+fk/W3J5850nb3RJUVFRlJeX+8yrqKjwLjudefPm8frrr/PLL7+cdgDmLl260KVLF++03W7nwIEDREdHN7aaFw2j0YjRaGRQWgcGd0tib2E1h0oM7C2sYe3+UoqqzZQe9h1QaeX+SgAkEogP0dItOpCre0Qzuks7ZH8eMhusDqx2FyF+youu5ZidnU1YWFijjiLagvLycgoLCy/Jz//ZapHw69q1KxUVFWRnZ3sD6rfffiMmJoaQkJAGt/vPf/7D888/z6pVq0hLSzv3Gl+CtEoZfRND6JvoeR/dbth1vIrjVWbkUgl+Kjk5ZUa25Fayt7Ca43oz+RUm8itM/Li7iJhgDYOTw9hVUM2hklqcLjdSiYQQPyVh/krCdWrUCil3DW1Pv6SGf1eC0JY0OvzS0tIYMGAAs2bN4tNPP6WwsJB58+Zx7733etf5/PPPWbJkCT/88AMAH3/8MTNnzuSNN95AJpPxxx9/AJ6Wovhr1jCJBHrEBdEjLsg7b0iHMG4bmACAw+nmcJmBzCPlfLYpn7xyI19tOwaAQibFXyOn2myn3GCl3GD1PnK37kApT17VhSmDEi/4PglCa9Okc35Llizh9ttvJyIiArVazZ133sljjz3mXcdgMFBSUuKd3r59OwkJCbz++uu8/vrr3vkzZszggQceaKZdaHvkMgmdI3V0jtRx+6BEMg6Wc6TMQPeYQC6LDUStkOFwuqk02agwWCmpsZJxsIxPNuby9LK97DhWxd+HJNEtJrCld0UQWkyTDqDj4+NZu3YtFosFhUKBTOZ70v3ee+/1aQm+8847zVNLoUFSiYRhKeEMS/G9Ei+XSYjQqYjQqUiNgmEp4aTFB/Ho/3bxbVYB32YVEBOsYVzXSMZfFk1aXNBFd45QEM7FWZ09VKvVzV0P4QK4pkc0qVEBLNiYx+rsYgr0Zj7ekMvHG3KJDdYwonMEA5PD6J8UQoif8swFCsJFTDxf1cZ0jPDnxUndeH5iV3Ycq+KHXUWs2F3Ecb2Zzzbl89mmfGRSCYOSQxnYPpRgPyXtw/zolxQqWobCJUWEXxsllUjoFR9Mr/hg/nlVKjuPVbPxcDmbcirYmlfJb4fK+e3QyVubukYH8LfescSHaAnzV5FdWMPGw+Uc15vpFhNIn8RgXG43VoeLrtEB9IgNOs2rC0LLE+EnIJVI6BkfRM/4IKaN6ECN2c7KvcUcKTVQZbazbn8pewtr2FuYXe/2O49XsfD3fJ95A9qHcs/l7RnWKaLBFqPF7iS/0kRRlYUKg5WMHAf/KzhIQY0dvcnGQ6M78bdesc29u4IAiPAT6hGgUXBDn5OdLVgdLr7NKmDXsSoKqsxUGG0khGgZ3CGM5HA/tubp2V9cg1IuRSKRsDq7hM05FWzOqSA53J8QPyVF1WZqLQ7PrThqOVa7i+Iacz1jn5xsbT781U7W7S/lhYndCdLW/1SQ3mTjaIWJy2Lrv2BTYbCxbGchveJ9bx0SBBF+whmp5FIm941rsPeZ/u1DfaYNVgcLfz/Kgo15HCkzcKTMd/1yg2cAeLlMQlywlthgDeE6FebKEvp3SaR7QgRHygw8uzybH3YV8duhci7vFM7wzhEEa5VUGK0U6M2sP1jGjmNVOF1uJvWM4ZXrLkMh83RR6XbDkm3HeHnFPqpMnl61E8P8mJgWw996xRAXogXA5Xazp6AGi91JgFpOkJ+SyABxQa8tEOEnNDt/lZx70tvz98FJbDhcjlohpV2AmhA/JVaHC6PVgUouJSJA7dOTzZo1a+jdPYLg4GB6JwQzoH0os5buZEtuJct2FrJsZ2Gd11LKpShkUr7NKqCw2sLzE7qyOaeSr7cfZ+cxz+OBPeODOK43k1du5I01B3nzl4P0TQwhJkjD+oNlVBptPmV2aqdjYlo0o7q0Q63w3M7ldLnRm2xUmeykRumICtScx3dQuBBE+AnnjVwmqXP/IQA6VaO2jw/R8tU9A8ktN7Jufymbciqw2J2E+qsI81fRNzGYIR3DyCs3MXXBVn7PqWDM6xne7cN1Kp4a34Wre0TjdLnJPFLOt1kFrNxTzJbcSp/XidCpqLU4KK6xcLCklld+PsArPx+ot15apYw5V6Ry64AEqsw2Fm4+ysGSWtLighjaKZyOEf5Ne6OEFiHCT2j1ksL8SBqSxNQhSfUu7xodwHf3D+Lvn24jp8xIeqdwxnWNZGy3dvgpPR9xmVTC0I7hDO0YzvMTHKzcW4zB4mBIxzCSw0+GlcPpJuNQGd9lFbDzeJX3nKREAkFaJVIJZB2t4qnv97B4y1Hyyo2Y7Z6hHE60TNUKGQFqOTq1giCtgmCtkmA/JVGBau/z1id6SbI5XFSb7ZisDkL8VSSH+xEdqKGgysye/DJyjjoo2nIUAK1CRoBGQYBGgfvPK+tyqYTkcH/C//yDkltuZNORCsx2JyF+SrrFBJIc7odU3KdUhwg/4ZIQFahh+bQhOF1ulPLTD03jp5I3eBVZLpMwonMEIzpHNLj9z3uLeeLbPewrqkEi8Tw9M7pLO7bl6dlwuJyyWisWu5PSWus57ZPXvt1nXKVdgBqpREJRtbnOsgCNgss7hTMqtR3dYwKJD9Eik0o4pjdxqMSARimja3QAgZq21Y+iCD/hkiGTSrxde51PY7tG0i8phO+yChncIZRO7XQA3Nzf0/GEyeakxmKnxmynymT3djJRUmOl0milwnDyHKNMKiFIq8BPKaek1sKRUiNF1WaigjRE6+SYa6q8nYDUWh3UWuyY7S6cThdqhQyL3cn+4lpKajydfIb4KRmUHEaETkVRtZmdx6sprDKzfGchy/9smcplEhRSqbfFekJssIZgrdK7TnSghthgDdFBGmKCNcQEaVDKpZhsTgwWB9Vmzy1Jh0oMlNZaqTBacbrcxP65rlYlp8Zsx+F0U1proajaQo3Fgb/S04LVKGT4qeR0jtKR0k5HUpgfUYGaC3YzvQg/QTgLwVoldwxOrHeZVilDq5Sd81Xj8vJydu/ezfDh3U+7ntsN+ZVG7E53vYe4RytNrNpbTOaRCg6VGijQmzE7nYTrVHSO1FFrcXCguJbjejPH9SdbjllU/fWlGmVL7lltBnjuLAjxUxH4561NJqsn//Xd5gAADbVJREFUZFVyKbHBWg5W2Bhz9sX7EOEnCBc5iQQSQxvu/To+RMudQ9tz59D2gOe+TYfThZ/q5Nff6XKTX2HCaHN41zleaeK43kxhlZnCajOFVRYcLhd+Sjl+Kjk6tZxgrZKYYA2JoX4EaxVIpRIKq8wU6M3YHC50ajkymZQwfyXRgRr81XLMNie1FgcWhxO90caegmqOlBnJKTdQYbBRVG2u9/C9tNZKjcnRbO+bCD9BaGNUcimqv5wXlUkltA/3DdA+CRe+R22TzROI1WbPvZn+ajkBagVmu5PjehP3/958HW6I8BMEodXwnDLwnGM8VRAKogLVRPg1X2Sd/rKYIAjCJUqEnyAIbZIIP0EQ2iQRfoIgtEki/ARBaJNE+AmC0CaJ8BMEoU0S4ScIQpskwk8QhDZJhJ8gCG2SCD9BENqkJoVfyf+3d/dBUVVvHMC/u4ALu7CBELiiLBXiuBEyLCCUSeDSIGOFJaHIYOgEOJWNFZrl2DSjiKED2gxTJmgQTsVATQGaNaUCjYVWLA2oK4MSL6HAbrysvLic3x8ON/e3UEvCXmCfz4x/nHPP3fvc9czD3Xt3n9PRgdjYWNjb28PNzQ1vvfUWRkZG/nGf8+fPIzAwELa2tli0aBGKi4vvKWBCCJkME0p+69evh1arRV1dHUpKSnDkyBFkZ2ePO76zsxMxMTGIiIhAU1MTXnvtNWzYsAEXL16858AJIeRemJ386urq8MMPP+D999/HokWLEB4ejvT0dBw+fHjcfQoLCzFnzhxkZWVh4cKF2LJlC8LDw5GbmzspwRNCyH9ldvJTq9VwcXGBv78/1xceHo7m5mbodGNXfK2rq8Pjjz8OofDvwzzxxBNQq9X3EDIhhNw7s4tjtbW1wd3deFGX+++/n9vm7Ow85j4PPfSQyT5tbabrrwJAUVERjh8/zrUbGxvR3d2NFStWmBvmjDE0NISRkRHY29MC2aP0ej1EIhFsbGz4DmVaMBgMGBwchFgs5juUaaO+vh4uLpNTZNXs5McY45bbGzV6RTfeQ4+x+oVC4bjjlyxZgri4OK6t0WgwNDQEpVJpbpgzRnl5OW7cuIHk5GS+Q5k2tm/fjtTUVJM/mNbq0qVLKCwsxN69e/kOZdrIysqCRDJ+yf6JMDv5yWQydHZ2GvWNtkdXlxprn66uLpN9ZDLZmOMDAwMRGBhobkgzWnt7OxobG5GUlMR3KNPGnj17EBMTg2XLlvEdyrRw9uxZlJWV0Ry5y7fffguFQjEpr2X2PT+FQoHOzk5cvvz3KvbV1dWQyWTjXoYqFApUV1eDja78DKCqqgoPP/zwPYRMCCH3zuzkFxgYiKCgIKSnp0On0+HSpUs4ePAgUlJSuI/DJ06cwLPPPsvtk5iYiO7ubmRmZmJwcBClpaU4ffo0Xnzxxck/E0IImQCzk59AIMDnn3+Ozs5OuLm5wd/fH9HR0Xj77be5Md3d3bh69SrX9vT0RElJCXJzcyGRSLB582YcOnRoVj7AmKjQ0FBER0fzHca0kpKSMu4tFGvk5eWFTZs28R3GtLJ69WoEBQVNymsJ2N2fSc3U29sLOzu7CT2p1Gq1kEql9CSPEDIt/KfkRwghMx0VNiCEWCVKfoQQqzR5y58Ts5SXl6O1tdWo79FHH4Wfnx9PEVleS0sLLl68iI6ODkRHR8PLy8tkTFVVFb766ivY29sjPj5+Vn896vbt2/j999+hVqshFAqRmJhotL2lpQUVFRVGfWKx2GTcbDE8PIzvv/8eP/30E/R6Pfz8/BAfHw87OzujcRqNBkVFRejr60NMTAwiIyMndiBGLEqlUjEfHx+mUqm4f6WlpXyHZTGfffYZA8A8PT0ZAPb111+bjMnLy2P29vbspZdeYomJiUwkErEzZ87wEK1lREVFMVtbW+bh4cFkMpnJ9m+++YbZ2dkZzZn4+HgeIrWM119/nclkMpaQkMBeeeUVtmDBAqZUKpler+fG1NTUMLFYzOLi4tirr77KJBIJy8nJmdBxKPlZmEqlYhkZGXyHwZubN2+y9vZ2ZjAYxkx+t27dYi4uLiw7O5vrS0tLY0ql0tKhWoxGo2G3bt1iH3744bjJz8XFhYfI+HH58mU2ODjItdvb25lYLGYFBQVcX0REBFu3bh3XPnbsGJNIJEyn05l9HLrnx5Ourq5/LQQ7G7m5uWHevHnjbq+pqYFWq0VCQgLXN1oD8v9/Xjlb+Pj4mPW1Mb1ej/7+fgtExC9fX1/MmTOHa8+bNw9z587lfio7MDCAc+fOYcOGDdyYuLg4DA8Po6qqyuzjUPLjwe7du+Hm5gZHR0e88MIL6O7u5jukaaOlpQVOTk5GFYQefPBBbpu10ul0kEqlcHR0hEKhwMmTJ/kOyWK+++47/Pnnn4iKigJwp1qUwWDg5gUASCQSeHh4TGiOUPKzsB07dqCxsRF6vR6nTp1CVVUVUlJS+A5r2tBqtXB0dDTqc3JyAgCr/SOxePFiVFZWoqenB62trYiKisKaNWtQX1/Pd2hTrrm5GUlJSdi5cyf30Eur1QKAyTyRSqUTmiOU/CxMpVLBy8sLDg4OWLFiBbKysvDll19Cr9fzHdq04Orqip6eHqO+v/76C8Df9SOtjVwux2OPPQaxWIz58+cjJycHcrkcJSUlfIc2pdra2rBy5UrExMTg3Xff5fpdXV0BwGSe6HS6Cc0RSn488/DwgMFgMPmPtFYLFy5Ef38/2tvbub6rV69CIBDA09OTx8imD4FAAHd393ErqM8GHR0dUKlUCAsLw5EjR4xqicpkMtja2hrVEejp6cGNGzewYMECs49Byc+CBgcHMTAwwLUZY8jLy4OXl9c/PgSwJkFBQXB3dzeq6H38+HGEhYVh7ty5/AXGo9Er31G//fYbampqEBwczFNEU+vmzZtQqVRQKBTIz883WgYDAEQiEVauXGk0R4qKiiAWi7F8+XLzDzQpz6aJWa5cucJcXFzY008/zZKTk9kjjzzCpFIpO336NN+hWUxTUxNTKpVMqVQyAMzHx4cplUr2ySefcGM+/fRTZm9vzxITE9lTTz3FHB0d2fnz53mMemplZ2czpVLJ5HI5s7Oz496fvr4+xhhja9asYcuWLWNJSUksNjaWiUQitnbtWjYyMsJz5FMjNTWVAWD+/v7ce6FUKtnBgwe5MWq1mjk7O7Mnn3ySbdy4kTk4OLCjR49O6DhU2MCChoeHUVlZidraWvT09MDb2xsxMTFWdS+rt7cXp06dMulfunQpfH19ubZarUZZWRlEIhGee+45eHt7WzBKy6qtrcWVK1dM+mNjY2FnZ4empiacPXsWzc3NkEqlCAoKmtgVzgxTU1ODa9eumfT7+vpi6dKlXLu1tRXFxcXo6+tDdHT0hEtdUfIjhFgluudHCLFKlPwIIVaJkh8hxCpR8iOEWCVKfoQQq0TJjxBilSj5kVnrwoULyMnJ4TsMMk1R8iOzllqtRn5+Pt9hkGmKkh8hxCpR8iNTqqKiArGxsfDz88MzzzyDX375hdt27tw5bNu2DaWlpQgNDUVQUBD279+Pu3901NfXh/T0dISEhCA0NBQ7d+40Kf917NgxrFq1CkuWLEFkZCTKysqMtpeXl2P58uUICAjAO++8A4PBMLUnTWYEWr2NTJkvvvgCycnJOHDgAEJCQnDmzBmEh4dDrVbjgQcewPXr13H06FHU1tbi0KFD6OrqQmpqKoaHh7Fr1y4AQHJyMjQaDXJycmAwGLB161a0traioKAAALBv3z5kZWXhwIEDCA4OxvXr142SY3NzMz744APs3bsXWq0Wmzdvhlwux6ZNm3h5T8g0MonFGAgxolQq2f79+4361q1bx3bs2MEYY6ygoIAJhUJ27do1bvuJEyeYs7MzGxkZYRqNhgkEAlZbW8tt//HHH5lQKGR//PEHMxgMzMnJieXn5495/Ly8PObg4GC0qM3WrVvZ+vXrJ/M0yQxFV35kSoyMjKC+vh7l5eW4cOECAKC/vx8NDQ0YHBzkxslkMsjlcq4dGhoKnU6HtrY2NDQ0QCKRwN/fn9seEhICGxsbNDQ0YHh4GL29vYiIiBg3Dm9vb9x3331ce/78+VZR/p38O0p+ZEqtWrXKpNTQaBlyACb330bbtra2EAqFJivcsTvLrcLGxgY2NjZjvsbdbG1pipOx0cwgU0IoFMLf358rRz6ejo4OXL58GYsXLwZw5yGIh4cH3N3d4efnh4GBAfz8888ICQkBAFRWVgIAFAoFPDw84OrqipMnT+Lll1+e+pMiswolPzJlMjIysHr1atjY2CAqKgoDAwOorq5GQEAAty6vVCrFxo0bsWvXLnR2dmL79u3YvXs3BAIB5HI5kpOTkZCQgH379uH27dt48803kZaWxpX937NnD9544w309fUhODgYzc3NYIzRAw3yryj5kSkTGRmJ6upqfPTRR8jMzOTu34WFhXFjZDIZMjMzkZ2djaGhIbz33ntGiSs3NxeHDx/Gxx9/DKFQiG3bthld5aWlpcHT0xPFxcWoqKiAp6cntmzZAuDOko9r1641iikgIAAikWiKz5zMBFTJmfCmsLAQGRkZaGho4DsUYoXoS86EEKtEV36ENxqNBr/++iuef/55vkMhVoiSHyHEKtHHXkKIVaLkRwixSpT8CCFWiZIfIcQqUfIjhFglSn6EEKtEyY8QYpUo+RFCrNL/AGCwEgxvzFCoAAAAAElFTkSuQmCC;" vertex="1" parent="1">
          <mxGeometry x="30" y="20" width="319" height="250" as="geometry" />
        </mxCell>
        <mxCell id="L5BF_w7w9N1c1NZYFQ7X-2" value="" style="shape=image;verticalLabelPosition=bottom;labelBackgroundColor=default;verticalAlign=top;aspect=fixed;imageAspect=0;image=data:image/png,iVBORw0KGgoAAAANSUhEUgAAAT8AAAD6CAYAAADX9EAYAAAACXBIWXMAAA7DAAAOwwHHb6hkAAAAGXRFWHRTb2Z0d2FyZQB3d3cuaW5rc2NhcGUub3Jnm+48GgAAADF0RVh0QXV0aG9yAE1hdHBsb3RsaWIgdjMuNy4xLCBodHRwczovL21hdHBsb3RsaWIub3JnL3GUQAEAAAAodEVYdENyZWF0aW9uIFRpbWUAMjAyMy0wNC0yM1QyMDoxODo1My4yOTI2NTeoz0ySAAAgAElEQVR4nOzdd3hUVfrA8e/0kslkUkkvEFooSQDpRIooKhZsYEVZyw/bsiwo6qK4IqiIde3o2gAR29pgAUFAAisl1NACSYAU0pPp/ffHyMCYAAESksD5PA+PmXvPPfe948w759577jkSr9frRRAE4SIjbekABEEQWoJIfoIgXJRE8hME4aIkkp8gCBclkfwEQbgoieQnCMJFSSQ/QRAuSiL5CYJwUTovyc/pdFJQUIDVaj0fuxMEQTitM0p+U6ZMoV+/fqjVakaNGtWobb755htiYmLo2rUr4eHhzJkz56wCFQRBaEpnlPw8Hg/jx4/n8ssvb1T5wsJCbr/9dmbMmIHZbOY///kP//jHP1i+fPlZBSsIgtBUJGfzbO/DDz9MXl4eS5cuPWW5559/nnnz5pGfn+9fdv3116PRaFi4cOGZRysIgtBEmvWa3969e+nfv3/AsgEDBrBnz57m3K0gCMJpyZuz8pKSEjp37hywLCIigpKSkgbL/+tf/+LVV1/1v66ursbpdBIdHd2cYbYIr9eL1+tFKhU33I/xeDxIJBIkEklLh9IqiM9IfRUVFYwbN4533nnnnOtq1uSnUChwu90By5xOJwqFosHyN954IwMGDPC//uabb1i6dCmzZ89uzjBbRGlpKQ6Hg8TExJYOpdXIzc0lKSmJoKCglg6lVTAajRw5coSuXbu2dCitxjPPPENcXFyT1NWsyS8mJoaysrKAZeXl5cTExJy0/Inr9u7dy+bNmxt9g6Ut2b9/P2azmYyMjJYOpdWQSqX07t2b0NDQlg6lVaioqGDHjh0MGzaspUNpNd544w30en2T1NWs7emMjAzWrFmDy+XyL1u5ciWZmZnNuVtBEITTOqPkt2bNGhYvXkxeXh6lpaUsXryYn3/+2b/+7bffplevXv7Xd955J1KplAcffJDdu3fz0ksvkZ2dzcMPP9x0RyAIgnAWzui096effmLLli0AREZG8v777xMdHc1VV10FQEhICAkJCf7yBoOBZcuWMWnSJAYPHkxSUhLffvstPXr0aMJDEARBOHNnlPxefPHFU66//fbbuf322wOWpaens2rVqjOPTBCENslZ6aRufR1ejxdNigZ1ezWyIFlLh1VPs97wEAShbfHYPBx5/Qi2Qhud3u4EgNvkpuK7ChQRCiRyiX+ZPFSOIkKBOkWNTOtLbrtu3EX5d+XgCaxXEaYg8uZIOr3rq9NV6+LA1AOYd5ix5FpwW93IdDJkQTIUkQq6fNQFXYYOgMqfK6nLrsNV68K1zwVNdP9TJD9BOEdelxekIJH6EoNxkxFbvg25QY7cIEfRToFUJcWSawHAMMzg287j5fCcw/565KFyVLEq5GFy7EfseLodzyDWg1Yqf6zEvN2MOdeM1+FFFiRDopSgCFOQtijNX3ZTr03I9XJ06TqCegYh18tx1bnwur2EDAohqJuvK5GrzoWzwonH7MFZ7cSaZ6XwuUJsBTbCrw7312crsLH7zt0nPf6M1RkYsnzHpIhSIFVK0ffVI9PJsB60Yiuw4axy+t6nP9iP2Cn5ILC/r6vahavahf2I3Z9kASq+qaDkQ19Zj/5PWfUciOQnXHBsh2xsSNmARCbxJZ9QBYqIP/5FKoh7JA5duq9V4bF5kCglSKQSHCUO6jbWYcoxYcoxoW6vJvWVVMD3xcx/Oh9ZkAy32Y2rypc4rAet2Apt9NnSh6DuvqRS+nEpRW8VNRhbyKAQMn/z9XbwOrwcnHbwpMeRMC8B2vv+rvi6ggOPHWiwnCpeFfDaWeHElGOiZnVNvbIdXu7gT35VP1WRe1tuvTK6njri/xrvfy1VS4m6NQpnhRP+yF9SjRRXtQtnpRNltNJfNuW5FFJfTUWqDryX6jjq8G8LvkTf8c2OaNO06HrokIXI8Jg9uIwunEedaFI1/rLhV4f7Tp11MuSfNV3KEslPaDaOow4KZxbiKHbgqnMhUUgwDDEQfm24/wvYEK/Li3W/FeMWIx6bh5i/HO/7adxixOv04rF60KZpUUYpMe8yU/GfCpKeTAJ8p1h4fC0rZ7kTZ7kT9h2vP/yacH/yO/LGEYpeLwKprzVyonZ3tjt+LOUOiv7VcEJD4ku4x5KfLkNH5M2RvuRQ7vS1ruweNKka9P1P6KPmhcTHj3dyd5Y7sZfYcVW6UMWrkIUdv06milcRe38sQT2DCOoR5EvCJjdep7deosn4NQPrPiumbSbMO8147B7kwXKQ4T9u8CU1TXsNUo0UeaivlRoxJoLo8dFIZMdbXppUDWkL0mgMRUTDDzAo2ykDXqtiVcQ9HNhZWar0xaFOVAcsjxgTQcSYCF+ZZU3XO08kP6FZuM1ucgbmYD0YOIZj1ZIqDj55kLQv0ogaGwVA2cIyDr96GJlbxp66PTgKHXidvmaCKl4VkPxyBuTgcRw/9VHFq3BWOvFYPeh66ggfHY5MJ+NSx6V4PV7/qZSzwpeEXDUu/7UkgLp1ddiLfUlPHiInuHcwut46gjOD0Q84nqgU4QpSX0/FY/Ug1UhRhCqQh8lRp6jRdNAgVR3/UsbcG0PMvQ135D+RVCOl/QvtT7q+oqICdvj+jro1iqhbo05bJ4CmvQZNew1ho8JOWe7EpNIcio3F7KnYw5G6IxyqPUSRsej433VFVForUcqUBCmO/xAuunkRI9uPBOC1Da/x6bZPmXjJRO7rdR8AFpelyeITye8iZd5lxlXrImRgCOA7/av5tQa30fc4orPad4pjybVQvaqaHj/28P8i12bXYjtgQ9tFiypJhdvoxlXjSzKKSAW6dB2yIBkx98dQ8W0FCVMSkBvkuKpdVC6ppOqnKv/1MfBdUzJuNCJBgh07SECdrEaXrkPXS4fX7fW3RIL7BuN1eEEG5p1mf2stZkKM/1oagEQhQYIEZbQy4LTsz7p/1x1jjhGZRoamsyYgrhMpwhXEPxrf4LqT8Xg9HDUf5ajpKBWWCmpsNXj/OPertdXi8fqSeJ29DrfX975HaCP4S+ZfAHB4HLyZ9ybrZOt4fPDjKKS+VlWFpQK9So9SdvLjaiq19lqsTisWp4VqWzUWpwWL00KdvY7RnUajkftOT1/OfpnVhat55tJn6BPbB4A3/vcGL647dQ8Rh9uBw+1ocF2ZuYyc0hzKzeX+ZS6Pq8GyZ0Mkv4tM5Q+VHHrxELXragm+JJjev/cGwFXjYvuV20+6Xc2vNUTf5RtgoujNIsq+KGuwXNioMHou6Qn4TuniJ8UHtIoib47E6/EGXPw2jDeQOCSR7HXZRPWIYtDgQQTpfa2BVQWr+HnLz2QlZdE9qjuZazNZVbCKdze9i8VhwVhnpNZWi1VuxfmhE71KT6g6lFBNKGGaMP/fV3W8ivR26QBUWauosdUQrYtGq9AS3CsYt9dNjd13jUyv0iOTnLxrhtVlpdRUikqmIjY4FoC9lXt58bcXSQxJZMbQGf79xM6NPfn/jAYMShjkT34A3xZ/y89Hf+apIU/5l438bCRbS7cSrgmnna4dUUFRxAbHEhUURbQu2n9ctbZa3F43TreTh/sef7Bg2oppFBuLeXXUq4RrfDc2piybwsr8ldTaazE5TFicFkwO0yljPfDoAdqH+lqum4o38eO+HxnXfZw/+XWP6s6QxCEkhiQSp48jXh/v+zvY93e0Lhq7247Febw1F6wM9v89ZeAUbkq7yf8eA2jl2jN6P09FJL8LgLPKdzrnNrnx2r1ItdKAa2pejxdbgY28v+ZR+WMlAHK9nOA+wXgcHqRKKTKdjLArwpDpfV96uUGORCJBGafEMNSAvt/xU0DJAAlSmZSaghrCd4cjC5EhN8jZ2GEj1o5W4q3xhGl8p1wL9i5gTeEaamw11NnrMDlMGB1GTA4T1dZqjA5j4K/5RsjplUOG3vfM88IdC/lgywe8N/o9ukd1B+Bg9UG+3PXlGb1HYZowf/L7bs93/OX7v/BA7wd4d/S7AGwt3Uqf9/ucth6ZROZvpT3S9xHeuPINwNeS+/fWf9Mrppc/+YVrwonXxxOqDiUqKAqD2oBU4vshCFGH+P8+Mdl2Cu/k35dCouChDg+RkJIQMNKNBAkKqYJKayWV1kpyy+vftDhRqDo0IPl9vftr8qryePrSp/3Jr8hYRE5pTr1tg5XBaBVagpRBGNQGNHINWoUWg9qAQnb8+t4j/R7hth63cUncJf5ld/S8gzt63nHK2FQyFSqZqsF1YZow/+foGLlU3PC46JV8UELBcwU4ih143YHj0ep66uiz7fgXOTsq29fVwelFbpCTPCOZmHtjAjqeynQyVPNV7K3YS15Vnv9fkbEI21Yb1eursblsWF1/XMPrCLJOMly/HU9c//f+/7G5ZDNZ1Vn+D+26w+v4YMsHpzwWpUxJsDIYpVdJuC484Is+ov0IZFIZ3aK6+ZddmnQpC29ciFahRavQEqoJRavQopKpqLHVUG2rpspaRbX1j//aqsmMPv48uUKmICkkCZ3yhIv/Eimhat+ACieehv6Z2+tGJVMRFRQVsH3H8I68f837pBhS/MskEgmH/3a4oWoaRSKRcGPcjQwbFDiwwZYHfE9ZlZnLKDOXcdR8lBJjCeWWcoqNxRw1HcXmsvmSqlRGVFDgtcJZI2ZhdVoDls8eMZspA6cQqg71v696VeMHEBiUMOisj7OliOTXRln2WLAf/uNCvV6OPFyOTCdDqpKi7Xz81MBtduOscoLEd/eyw5wOyKPkvJz9MgU1Bbx11Vv+ZHPrV7c2+Ov/Z3qVHo1cQ5AyCLvb7v/lvqrjVXSO6IxBffza263dbyUzOpNQTSg6pY5gZTA6pQ69So9BbUCn1PmvXa1YsaLeqC5ju41lbLexAftPDUslNSz1LN85uLPnndzZ886AZZnRmVQ9XnXabd1ed4OnxKHqUP9F+fMlKiiKqKAoutP9jLa7Oe3mesuSDckkG5KbKLK2QSS/Vsrr8WLJtWDZbcGyx4I134pELqHz+77BYdu/0B7DUAOhV4QiVR6/pubxeiisLWRp3lL2VOxhb+Ve9ny4B6/Xy68TfvWXe2ndS1RaK5l+6XRidL47k1lJWbTTtfMnl9SwVJJCktAqtISoQ1DL1QF35v7sn8P+WW9ZVlIWWUlZTfSutLxTXQsU2haR/FqY/Yidyh8rCRlyvOe9cYuRvRP2YtoWeMFZHiL3Jz+jx8jB3gfZu2evP8ntq9zH3oq92N32evtRyVR4vB7/daYnhzyJSq7y360DeG3Ua811mILQ6ojkdx45K51I5BJMW02YlpkwLzezfvN68ELf3L4AVP5Yyc4xO/G6vChjlOgu0bG2+1pKI0qZ1HGSv65BHw1iZ9nOBvcTr4+nc3hnOoV3oktEF7pEdKFTeCckHL+WNnnA5OY9WEFo5UTyayb2YjvmnWbCLvdd+Pe6vGRHZwd08QAwG8xYrrXwH+t/OLDmAPtt+ym7vYw3Q98k5fkUZFoZl754KTV1NTwy7BH/dpnRmcilcjqFd6JzeGe6RHShc4Qv4Z3YXUAQhIaJ5NcMKn+qJPeWXKQaKf0L+yMLkuE46kCmk+GxedibtZf5PeazNXgrtdT6Nvr++PaajhraP9nef4p6T8Y9SCQSfwdZgE/HfHo+D0kQLjgi+TWxsi/K2H3XbrxOL4YRBly1LmRBMuSxcop/K+bl7JfZWLzRXz5IEURqWCodwjoE3Gg4MdG9csUrLXEognBBE8nvFCr+U4EsWOYbmme/Fet+KzK9DE17DbpMHeok3+Neln0Wan6twbLbQtGbRXjdXhIfT6T97PYgga9yv+Kx5Y+RX+ObvD1CG8HY9mO5OvZqrhxwZUseoiBctETyO4W8v+ZhK7Q1uC7luRSS/uEbRaRuXR37Hjg+bEj72e1JnHZ8tA6P10N+TT7tQ9vzaL9Hua/XfRQVFGE2m5v3AARBOCmR/E7C6/ESdmUYpq0mPDYPmo4aNKka3CY3tnwbuszjvfuD0oOImRCDKl5FdUY1z0ifQbdEx5tXvgnAjWk38v2t33N1x6v91/EEQWhZIvn9SeHzhagSVETdEkWndzqdfgMguFcwnT/09b+zV9r59K1P0cg1zBoxi2BlMDKJjGs6XdOcYQuCcIZE8juBs8JJ4cxCPA4PhiEG1Cnqk5Y1O81sLNrIusPryKvK49/X/RuAzuGdefvqt7ms/WWiy4kgtGIi+Z2g5IMSPDYPEddG1Et8+TX5ZB/OZsORDWQfzmb70e0Bo5Hck3GP/zGuB3o/cF7jFgThzInk9wePzUPxe8UAhE8MJ/twNuuPrGfdoXVsOLKBElPgZCtyqZw+sX0YED+AwYmD6RffryXCFgThLF30yc+808zmvpvxWH2j6mo7aXlD8QYvfPRCQDm9Sk/fuL4MShhE79jeZCVlEaIKaYmQBUFoAhdN8qtaVkXxO8XYi+yok9R0W+wbH06mk2H0GrGGWYlTx5EyO4VBCYPoEdWDgQkDGZAwgAHxAwIGmRQEoe07q+RXVlZGUFAQQUEnH97oRF6vl/LycsLCwpDLz3++PfzyYQ5OO+gf9NNVc/xanb2dnefeeI5Scymr7l5FpCGS0YxmdKfR5z1OQRDOnzPqdJaXl0fv3r2Jj48nJCSEu+66C4ej4clHjpkxYwZ6vZ6UlBS0Wi133303NlvDHYebmtfpZc/dezgw9QBej5ekfyTRK7sXGasyjheSAhICHicTBOHC1+jk5/V6ueWWW0hOTqaqqop9+/axevVq/vnP+gNYHvPDDz8wa9YsfvjhB8xmM7m5uSxbtoy5c+c2SfCnc+SNI5R+UoosSEa3r7qR8lwK+gF6VHHH5wwIUYXw3zv/y9p71gYMQS4IwoWt0clv06ZN5OTk8MILL6DT6Wjfvj2TJ09m3rx5eL0Nt5p27dpFx44dGTp0KACpqakMGzaMnTsbHoeuqbmNbqRqKWkL04i8IdK/3OgwMid7jn/qwBBVCIkhiSerRhCEC1Cjk9+ePXuIjIykY8eO/mUDBw7k6NGjVFU1PPfBsGHDKCgoYPPmzQAUFRWxdu1aRo4ceY5hN07yjGT6F/YnfHS4f5nRYeTKz6/kseWP8dTKp06xtSAIF7JG330oKSkhPDw8YFlERMRJ1wH069ePefPmMWTIEAwGA5WVlUybNo0JEyY0uI958+bx7rvv+l9XVVUREhLC6tWrGxtmw3b7/mPz2Ji2fRpba7YSpYqip6vnudd9lux2O263m9ra2hbZf2tktVrJyclBJhPzZAC4XC6sVmuLfUZbI6vV2mR1NTr5yWQyPB5PwDK32ze938nu4G7atImJEyfy7LPPcumll5Kbm8uUKVPo2rUr48aNq1d+xIgRJCcn+1+vXLmS7Oxs0tLSGhsmAKZfTLiNbvTX6JHIfEO3W11WbvvpNrbWbCVOF8e3139Lsj751BU1o6KiImw2Gx06dGixGFqbLVu2kJKSgk6nO33hi0BtbS35+fln/Pm/kCmVyiarq9HJLyYmhvLy8oBlx17HxMQ0uM3cuXMZOnQoU6dOBaBv374UFBTw3HPPNZj8UlJSSEk5ftOhrKyMLVu2EBkZWa/sn3ndXoybjVQvr6b0vVLsh+2kLUgj8tZILE4LYxeMZV3ROuL18fx69690CG3ZpFNTUwPQqGO7WMhkMgwGQ8DUlRcziUSCXC4Xn5ETNOVZQaOTX3p6OtXV1WzdupWMDF9XkV9//ZWUlBRCQhp+0sHlcqFWBz4jq1KpcLlcDZY/W7Vra9l7714s+yz+ZZr2GiJv8iW+0QtGs6pgFfH6eFaNX9XiiU8QhJbX6Bse3bp1Y+TIkTz00EPs3r2b5cuXM2fOHP7617/6y7z33nv079/f/3r06NF8++23LFiwgJKSEpYvX86bb77JNdc03fBOh+ccJmdoDpZ9FtRJamIfiCVtURqZ6zKxYvUnvmhdNMvuXHZOk10LgnDhOKPHLRYsWMBDDz1Ev379CA4OZtKkSTz66KP+9Wq1GoPB4H89fvx4amtrmTVrFg888ADt2rVj/PjxPP300012ACFZIUgVUuInxZP8bDJSlS+fW5wWrll4jT/xrRy/kq4RXZtsv4IgtG1nlPwiIiJYtGjRSdePHz+e8ePHByx79NFHAxJkU3CWO1FEKgDQ99PTv6A/yujjF0KPJb6V+StpF9ROJD5BEOppc2Oq16yqYUPKBiq+r/AvOzHxASzatYiV+SuJDY5lzT1rROITBKGeNjWqiy3fxq5bduE2u6leUU3EtRENlrsn4x4qLBVc2/laMRqLIAgNajPJz21ys+O6HTgrnIRdEUbqq/VvXNjddlQy33O7UwdOPd8hCoLQhrSZ09499+zBvMOMtouWtEVp/s7Lx/x767/p/nZ39lftb6EIBUFoS9pE8rPstlD+VTlyvZzu33VHHhLYYHV73bz1+1vkVeWxpnBNC0UpCEJb0iZOe6tXVgMQfk042s7aeutlEhkrx6/kq9yvmJDZ8HPDgiAIJ2oTLT9dpo7YibFE3BB4g8PkMPn/1qv0IvEJgtBobaLlFzIwhJCBgY/QWV1WLv/scjpHdOb9a95HIVW0UHSCILRFbSL5/ZnH6+GOb+5g/ZH1lJhKqLHVEKkVD38LgtB4rf6011Xj4ujnR3GUHZ8r5LHlj/HN7m/Qq/R8f+v3IvEJgnDGWn3yc5Q62H3nbqqW+kaLnrdlHnPXz0UhVfD1LV/TI6pHC0coCEJb1OqTn6vWN/yVYaiBpXlLmfjTRADevOpNLmt/WUuGJghCG9bqkx9u0HTQkKfOY9xX43B5XEzPms4DvR9o6cgEQWjDWn/yAxwjHVw1/ypq7bWM7TaWZ4c+29IhCYLQxrX65OeWuHkw6UEO1x1mSOIQPhnzCRKJ5PQbCoIgnEKr7+pySH+IUnspncI78e24b/0DFwiCIJyLVt/yMwebidBG8NNtPxGuqT89piAIwtlo9S2/9mHteXvc22LuDeGsORwOqqqqsNlseL3elg6n0ex2O1qtlvz8/JYO5bxRKBSEhoYSFBTU7Ptq9ckvWhfNwISBLR2G0Ea53W7y8/NRKpXn5QvVlFQqFQqFos3FfS4cDgeHDh0iISGh2edvbvXJTxDORW1tLVKplKSkJKTSVn+VJ4DL5cJqtRIcHNzSoZxXRUVFVFVVNXvya1ufBkE4Qw6HA5VK1eYS38VMrVbjdDqbfT/iEyEIQqsikUjOy7VZkfwEQbgoieQnCK1MdXU1LpfrnOsxm81kZmZy+PDhs67jqaee4pVXXjnnWFojkfwEoZWJjo7m999/P+d6JBIJ0dHRyGSys66joKCAI0eOnHMsrdFZJT+TyYTdbj+jbZxOJ7W1tWezO0EQTlBSUkJdXZ3/tclkoqioqF45rVbLkiVLiI2NrbfOaDRSUVFx1jFUV1djsVgaXHesu8qJMR5jt9s5dOgQRqPxrPfdVM4o+eXn5zNw4EBCQkIIDg7mvvvuO+1dmZqaGu68806Cg4MxGAyEh4fz3//+95yCFoQLVe/evXE4HIwaNYqoqCgmTPDNS3PllVfyxBNPkJmZSYcOHXjllVcoKiqiR48eREVFkZmZSWhoKB988IG/LqPRiEaj4cCBAwB8+umnZGVlMXXqVGJjY4mJiSErK4uamppGx7dhwwa6du1KYmIi4eHhDBs2jOLiYv/6GTNmEBYWxuDBg4mJiWHw4MH+dY8//rh/Xbt27Rg1atS5vl3npNH9/LxeL2PHjiU6OpqKigpKS0sZOXIks2bN4plnnmlwG4/Hw5gxY7DZbGRnZ5OamsrevXubvf+OIJzKzqJaCqsabrU0lxFdolArTn/6uXnzZlQqFUuXLqVv375YrVbAl8jeffddfvjhBwYPHozNZsNisfDBBx/Qv39/ANasWcNVV11FVlYWnTt3xuv1YrPZ8Hg8gK/VlZ2dzYgRI6ipqaGmpoaBAwfy9ttv8+STT542NpvNxrhx47j++uuZO3cuZrOZ66+/nokTJ/Kf//yH/fv3M2vWLHJzc0lNTcXr9ZKTkwPA1q1beeutt9i9ezeJiYl4PB62bdt2tm9nk2h08tuyZQsbN25k9+7dhIaGEhoayt///nfmzJnD008/3eBIKz///DPr16/nwIEDxMXFAXDJJZc0XfSCcBYW/n6Y+f8rPK/73PDkCKIbkfxO5bbbbvO3pNRqNWq1mv79+7Nv3z6Ki4txuVwkJSWxbt06Onfu3GAdoaGhTJ8+HalUSnh4OGPGjPEnqNNZuXIlFRUVzJo1C5lMhl6vZ9asWQwYMICKigpcLhder5ddu3aRnJyMXC6nV69egK/DttvtZteuXcTFxSGTycjMzDyn9+NcNTr55ebmEhERQZcuXfzLBg8ezOTJk6muriYsLKzeNuvWraN///4cOHCAl156ibCwMG688Ua6d+/eNNELwlnoHqfn6h4x53Wfavm5JT6ADh06BLwuLS3l6quvpqamhi5duhAUFERlZSVlZWUnrSMuLi6gw7der2/09beCggISEhLQao/PnX0sHxQUFNCnTx9mzJjB3XffjUQi4bLLLmPy5Mn079+fPn36MHnyZMaNG4dCoWDkyJFMnTrVnxxbQqOTX0lJCeHhgaOqRET45tEtLi5uMPnl5+eTl5fHhAkTuOuuuzh48CB9+vTh+++/5/LLL69Xft68ebz77rv+11VVVah1BlavXt3oA2or7HY7brdb3AQ6gdVqJScn55zuTv6ZUqkkODg44As+umsoo7uGNtk+GsVtw2i0Nbq4xWLBarXi8XgwGo243W5cLlfAccycOZPIyEhWrVrlP/M6dkpsNBoxmXzzWpvNZoxGo39ghxPrsNvt9eo9kdPpxOFw+K8f1tTUBJQ9didYpVJhNBp59NFHefDBB9mwYQOfffYZw4cPZ+vWrcTExDBt2jQmT55MdnY2n376KZdeeim7du0iNDTw/4XRaKS6urrB7/2xywBNodHJTyqV1ut17Xa7AU76YfV6vRw9epT9+/eTnJwM+KJ44VQAACAASURBVD6M06dPbzD5jRgxwl8OfM3sD79dQVJqZ4KUTfeFaA2Kioqw2Wz1fs0vZlu2bCElJaVJrwkfu+Oo0WiarM7mZjAYsFgsKJVK7HY7Go0GqVSKQqEIOI6ampqAltiOHTvYtWsXt9xyCxqNxn8zUq1Wo9FoUCqVSCSSgDoUCgUymeyk749cLkcul6PRaBgyZAiVlZWsX7+e4cOHA/D111+TlJREp06dcDqdqNVqAEaOHElWVhZffvklFRUVxMbG+uO48sorGTBgAJGRkVRXV9e7G63RaAgKCgrIBccolcqzf2P/fGyNLRgTE1Pv1vix1zExDZ9CxMbGkpCQEHAQQ4YMYeHChQ2WT0lJISUlxf+6rKwMz7e/UOZQ0jeufsuyLTt2hy0yUky7eYxMJsNgMNRrCZwLt9uNw+FALm87Y3hcd911PPTQQ/Tt25f09HT/NXWpVBpwHOPGjeOmm25CLpejVqtZsmQJnTt39pc7VlYmkyGXy5FKpUgkkoA6Glp2ohP3m5qayhNPPMFNN93E+PHjqa6uZvHixSxevBiVSsWyZct47LHHuOyyywgPD2fFihVkZGTQu3dvvvnmG55//nmGDx9OWFgYS5YsYdCgQXTv3r1e40kul6NUKhv8bjTlWUGjPxE9e/akqqqK7du307NnTwBWr15NYmIiBoOhwW3S09P56KOPcDgc/oxdWlpKVFTUGQV5pNpK35TTlxOEC8F7773H77//TmFhof+H4LnnniM+Pj6g3OjRo1m9ejXLly9Hr9fz66+/sm/fPv/3S6vV8sUXX/gbJ38+swIYM2YMQ4YMOWksjzzyiL81B/Dss89yxRVX8Ntvv9GlSxemT5/uv7ly2WWX8dprr7F9+3bMZjMPP/wwY8aMQaVScd1116HX69m1axdWq5WpU6dy3XXXNWkyO2PeMzBs2DDvpZde6t2/f7939erV3vDwcO+cOXP86+fNm+fNysryvzaZTN74+HjvI4884i0pKfH+9ttv3tjYWO+zzz7bqP3Nnz/fG9Glr/fNX/afSZhtwr59+7w5OTktHUarsnz5cm9VVVWT1llSUuItLCxs0jrPF6fT6a2rq2vpMM67yspK7/79DX/nr776au/rr7/eJPs5o07OCxcuxGAw0L17d2644QYeeOABJk+e7F9/rIl8TFBQEEuXLmXr1q0kJiZy++23c++99/LEE0+cUYIuqmm6i5yCIAhwhoOZtmvXju++++6k6ydMmODvkX5Mt27dWLNmzdlF94cj1SL5CYLQtNrEwAZFNee3N74gCBe+NpH8imtstKF5ZwRBaANaffKTSyXYnG6qzI6WDkUQhAtIq09+SrkvxCPi1FcQhCbUZpJfkbjpIQhCE2oDyc/XCVJ0dxGEM+PxeNi0adMZDzx8sWj9yU/me2BbtPyEi8W8efM4evToOddjMpm45JJLOHToUBNEdeFp9clPJVp+wkXmoYce8o++fC60Wi1ff/11g8PYC2fYybkl+G94iJafcBFYsmQJHo+HlStXcujQIcLDwxk5ciSrVq0iPj6e6upqli5dSlZWFllZWfz+++9s2LCBmpoaunXrxpgxYwIGKTg2LBbAwYMHOXDgAL1792b+/PmYzWauvvpqevTocdJ4ampqWLFiBbm5ueh0OoYPH05GRkZAGYvFwk8//cTu3bsJCQlh5MiRpKWl+devXbuWjRs3YrFY6NOnDyNHjmzZZ3r/0OpbfkrZHzc8RMtPuAhkZ2f7r9X98ssvbN++HYDp06dzzz33cP/99/sHLN23bx/33Xcf+fn5OBwO/6gpx5KdxWLhjjvuoLS0FIBffvmF+++/n8svv5zdu3eTk5PDJZdcwubNm08az+zZs/n888+x2Wzs27ePoUOH8sknn/jXFxcXk56ezqxZszCbzezevdv/+KrX6+Wee+7huuuuIy8vj7q6Op555plWcxre6lt+cpkErVJGndWJ0eYiWN3qQxbagCOvH6Hyx8oG12naa+j0Xif/6+1XbsfrariXfdxDcURc7xvUt3p5NYdeqv/FTluYhiJC0ai4nnvuOV566SUee+yxgDk8wDfI58aNG/0jJHk8Hnbs2OFf//TTT9OxY0eWL1/OFVdc0WD9hw8f5rvvviM9PR2AG264gQ8//JDevXs3WH727NkBz+tfdtllTJ06lfHjxwMwbdo0oqKi+PXXX1EofMfo/eOJhJ9//pkFCxawbdu2gBHgva3kiYU2kUliDRryykwU1VjpEh3c0uEIFwDLHgvVK6obXOdMD5yRsPqXarzOhr+wEddG+P+2l9gbrNNj95xDpMddf/31AYN5SqVSNm3axKJFiygpKcHhcOBwONi7d+9Jk19ycrI/8QFkZGScco5gp9PJ/Pnz2bx5M+Xl5ZhMJgoLC7HZbKjVarKzs3nyySf9iQ/wjyqdnZ3N0KFDAxLfietbWptIfnHHkl+1SH5C04j/azyRNzY8kKxMF3g9queSnnCSxoq28/H5LMJGhpG+PL1emca2+k7nz1NFLFmyhHHjxjFt2jQGDhxIcHAw+/btw2w2n7SO4ODA749cLsflcp20/Lhx4zh69Cj3338/UVFRHD16lCVLlmC1WlGr1VRUVDQ4hQVwynWtQdtIfqG+IbbFdT+hqWi7aNF20Z6+IBA6onEjSytjlChjzn2YdZlM5r9udyqLFi3i7rvv9l9j83g8VFY2fCp/NsxmM99//z07d+6ka9euAPzwww8BZVJTU9mxYwfXX399ve07dOjAZ599htfrbTWtvRO1+hseAPGGP5JftXjETbjwJSQksGbNGqqqqk7ZijMYDOTk5Pjv6M6cOZOSkpImi0OlUqHRaFi3bh3gm8Ts2WefDSgzfvx4XnvtNX8Zl8vFhg0bALj55ps5ePAgs2bN8rcut2/f3ujZ4ppbm0h+caG+X+iimsbPfiUIbdXcuXNZtGgRXbt25ZFHHgF8p6snDicP8Nhjj1FXV0e7du2IiIigsLCQ0aNH+ycjkkgk6HQ6/w0LlUqFXq8PqEOj0Zx0wii5XM7bb7/NpEmTiImJoVevXtxzzz2Ehob6W3IPP/wwDz/8MKNHjyYsLIzg4GDeeecdwDcnz/fff8/nn39OcHAwoaGhXHvttVgsraMRI/G2llsvDViwYAGffvopM99byE3vZNM1Rs+3Dw5s1Mz3rd3+/fsxm831+kxdzFasWEHv3r2bdAKj0tJSHA4HiYmJTVbn+eJyubBarfWu0/1ZaWkpQUFBpy13tpxOJ2VlZbRr1+6UE0EVFxdjMBgC5vU9pra2FofD0agJu6qqqqiqqiI1NbXeutGjR3P55Zfz6KOPntlBNKBNXPNLCvO9mbtL6uj13HKGdo7i0REdxc0PQQCio6ObtX6FQkFcXNxpy53qSZKQkJCmDKlJtInT3shgFbNv6EF6ggGr083PO0q4+d1sNhZUtXRogiC0UW0i+QHc2jeR/zw0iOxpw7mqRwxGm4u7PvydX/eWt3RogiC0QW0m+R0TE6LhzVszGXdJAlanm/s+3cSC31vH4zKCILQdbS75AcikEmbf0JP/u7QDTreHJ7/ZwbSvt+NwNU1PekEQLnxtMvkBSCQw7couvDo2A7VCxhcbD3P92+v4ZXeZmOxIEITTarPJ75gxmXF8PXEgCWFacovr+MsnGxn95lp+2tF0nT0FQbjwtPnkB9AtVs+yv2UxfXQaUcEqdhXX8dhX23G5RRNQEISGnVXys9lsuN3upo7lnGgUMv4yOIW1jw8nJSIIs93FtiM1LR2WIAit1Bklv8OHDzN8+HD/IzGPPPLIKUeEONGGDRvo0KED991331kF2lgquZQhHX3DDK0/0HQPeQvC+TJgwAD/IKZNYc6cOcyYMaPJ6rtQNDr5eb1exo4di0ql4ujRo6xfv56vvvqKF1988bTb2u127r33XjQajX9U2eY0oMMfye+gSH5C27NlyxZMJlOT1Xf48GEKCgqarL4LRaOT39atW1m/fj1z584lKiqKjIwMpkyZ4n+I+VT++c9/MmjQIAYOHHhOwTZW//ZhSCUSNhVUYXO2rtNzQTiV8ePH43K5mDRpEqNGjWLmzJmAb7iqOXPmMGDAAFJSUhgzZgx5eXn+7Xbt2sU111xDfHw8KSkpjB49moqKChYvXsx3333HsmXLGDlyJCNHjqSqquEnoyZNmkRGRgbx8fEMGjSI7777LmC92Wxm6tSp9OnTh/j4eC677DK2bt3qXz9//nxGjBhBQkICGRkZvPfee83wDjWdRj/bu2vXLsLDwwMmJhkyZAhTpkyhqqrqpIMWbtu2jc8++4xt27bx+OOPn3vEjRCqVdIlJpjc4jpyDtUwoEP4edmv0HZUWCqos9ed0TaxwbGo5eqA7SO0EehVvpFSTA4TZeayetslhiQilzbuqzZ16lQWLlzIxIkT6datGyqVCoCZM2cyf/583n77bZKSkvj4448ZOnQoe/fuJSgoiNtuu42RI0fyr3/9C4fDwYYNG/B6vWRlZTFw4EDMZrP/1PdkAyCEhYXx0UcfERYWxm+//cYdd9zBmjVr6NWrFwBjxoyhvLycV199lcTERHbs2IHT6Rv1et68efztb3/jtddeY+jQoZSXl3Pw4MHGv7ktoNHJr7i4uN6IDBERvtPLkpKSBpOfy+XiL3/5C6+99lqjRuqYP38+H3/8sf91aWkpSqWS7Ozsxobpl6xxkAssXrMN71H1acufbxaLBbfbfVbHdqGy2Wxs3749YEj0cyWXywkKCqp3GjltxTQ+3PbhGdX1y22/0DemLwDTV07n3Zx3mTN8Dv+X+X8ALNi1gAeWPlBvu70P7CVW17jpI5OTk5FIJCQmJtK1a1c8Hg/l5eW88MILfPPNN/Tr188X/7RpfPPNN3z55ZfcfPPNFBQUkJ6eTni474d+zJgx/jpDQ0ORy+V07twZ8F2Gamgi88mTJwO+/w9Dhw7liiuu4Msvv6RTp05s27aNFStWsHXrVtq3bw/AiBEjAN/8wC+88AJTpkxh7NixALRr147u3buf1em7yWSipqamwe+GzdZ0w9o1OvlJJJJ6E48ce32yUVpnz55NTEwMN9xwQ6P2kZmZGTBHwW+//UZOTg7JycmNDdNvmLeOnw8c4IBRdlbbN7eSkhLsdnurjK2lGI1GYmNjCQoKarI6TSYTUqnU34I6pl1wO1IMKWdUV7Am2F9PpC6SFEMK4UHh/mVhurAG69SqtfX2fzoKhQKFQoHD4eDIkSNYrVZmz54d8MNQXl5OQUEBKpWKadOmcc899/Dyyy8zatQobr/9dv/oyzKZrMH34M9mzpzJ+++/j91ux2AwUFVVhU6nQ6VSceDAAaKjo/11nshut1NQUEBWVtYZH2dDjg2i2tAoMacaUutMNbqm2NhYKioqApYdex0TE9PgNs8//zy33HIL06ZNA+D333/HZDIxbdo0nnrqqXrN77S0tIDTaqfTyd69e89q0uWrwqN44qeD7DpqJiQiiiBl6xq9y2w2YzabxYTSJ8jNzSUiIqJZxvP7c2vy+RHP8/yI58+63n8O/yf/HP7PgGU3dbuJm7rddNZ1nkgulyOXy3E6nf5BTP/xj3/UO8OKiYlBoVDwxBNPcPfdd7NkyRIWL17Mq6++yq+//srAgQORSqVIpdJTtqi//vprPvjgA9asWUPHjh0BmDBhAm63G4VCgUajwel0NliHRCJBJpPh9XqbpNWuUChQqVTNnvwafcOje/fuVFZWsnPnTv+yNWvWkJCQcNIP66RJk1rsyx2kktM9LgSX28umgoZn6RKE1kir1Qac3qWmphISEkJhYSG9e/cO+Hfi9ysmJoYJEyawZMkS+vXrx8qVKxusryG5ubmkp6f7E5/D4WD16tX+9ZmZmVRWVrJ+/fp628rlcnr06MH3339/Tsd9vjU6jaanpzNkyBAmTZrExx9/TFFRES+//DJ/+9vf/GU+/vhjFixYwLJlywB44YUXAuqoqqqipKSk3vLmMjA1gq2Ha/h68xGyOkbSCudQEYR6+vXrx4wZM7jyyitJSEjgjjvuYM6cOUyaNInCwkL69OlDZWUly5YtY9KkSfTo0YPrrruOm266icTERPbt28fWrVv937N+/frx3nvvMWPGDDQaDQ899FC9oesHDx7MzJkzee2110hMTOT9998PmEQpNTWViRMncv311/Pkk0+SnJxMTk4OgwYNYuTIkcyePZtrr70Wt9vN8OHDKSsro6Kigqeeeuq8vndn4ozakF988QUTJkwgKSkJrVbLAw88wNSpU/3rHQ7HKSdciYiIOK8TFl/TM4YP1x7k+23FRAarmD467fQbCUILW7BgAZ9//jlHjhzxn+bed999dO7cmcWLF/Pee+8RHh5OVlYWaWlpqNVqrrvuOtatW8e3335LfHw8P/30E4MGDQJ88/3KZDI2bdpEdXV1g9/BYcOG8dlnn7Fo0SIA7r33XlQqVcCk6f/617/o378/K1euZPny5XTu3JlOnXyTu48cOZJ169bx6aef8sEHHxAVFcVtt93W3G/VOTmrOTzcbjcyWfPPo3FsDo+lS5eedR0r95TxwGebcbo9TBicwvAuUejVCuIMGsJ15z7N4NkSc3jUJ+bwCNTYOTwuNK16Do/zkfiayvAuUbx1WyYPLtjCR7/l89Fv+QCoFTIeH9WFuwcmi9NhQbgIXRCjupzO5d2ieef23gzpGMHg1Ai6xuixOd08+8Mu7vrod3IO1WB2NO4ZZUEQLgytq/9HMxqZ1o6Rae38r5ftKmXaNztYu7+ctfvLkUggMUzLzOu7M6Tj6afXEwShbbsoWn4NubxbNP+dlMVtfRPpEqNHLpVSWGnhnV8PtHRogiCcBxdNy68hkcEqZt3QA4Aqs4M+M1ewubAam9N9QUyMLoBUKg3osiG0fi6X67zcV7hoW35/FhakpGtMMHaXh02FolP0heJYB9+6ujqRBFs5r9eL3W6nrq4OrVbb7Pu7qFt+fzY4NYJdxXWsy6tgcGpES4cjNAGdTofBYKCoqKilQzljF2tXF41G4x80pTmJ5HeCQakRvLfmINl5YhDUC0l0dDTh4eHY7fY21fqrra2lurqaLl26tHQo54VEIkGhUPifZW5uIvmd4JKUMBQyKTuLaymstJAU3vxNb+H8ODZKSlvicDhwu93o9fqWDuWCJK75nUCjkHFFt2jcHi8TPt5IjcXZ0iEJgtBMRPL7kxdv7EFarJ4D5Sbu/2wTdlfbOU0SBKHxRPL7kyCVnH/ffQkxIRp+z6/i719uxXMeB2MQBOH8ENf8GtBOr+bfd/fhpnfX8+P2EnQqOTf2jqdHXAhOt5eD5SaKaqxE6FTEh2pop1cjk4oHhAWhLRHJ7yS6xOh5545e3PPxRr7YeJgvNh5GJpXg9jTcCtRrFETolPRJCmPWDT2Qi2QoCK2aSH6nMKRjJJ9O6MeP24rZcriG/UeNaBQy2kcGEWvQUGGyU1RtpcrsoM7qpM7q5GC5mcQwLQ8Prz8cjyAIrYdIfqcxsEM4A/+Y+tLu8qCUSesNgeX1QrXFwe/5VUycv5nXf9nPsC5RdIsVXRQEobUSNzzOgEpeP/EBSCS+x+NGdY/m7oHJON0eJn2RI+4UC0IrJpJfE3tsVBfaRwaxv8zEi0v3tHQ4giCchEh+TUyjkPHq2AwUMikf/ZbPwt8PtXRIgiA0QCS/ZpAeb2DWmO4ATP9uJ2v3l7dwRIIg/Jm44dFMbu6TQEGlhbdW5THx8y30iA/BZHOhkEkZmdaObnonevHTIwgtRiS/ZjTl8s4UVlr4cXsx6w8cHylmyyHfeIF9YtV80dMr+gQKQgsQya8ZSSTw2tgMbu2bAPg6QpfUWPl5Zyn/3VHCpmIb8zcUMn5gcssGKggXIZH8mplcJmHQCQOj9ogL4fJu0XwS7uWZFcW8snwf12XEYdC2reGWBKGtE1edWsjAJB092qmotTqZ9s121uVVYHW6WzosQbhonFXLz+v1IhEzfZ+zCRkhTF1eztKdpSzdWYpCJiUz0cCtfRO5Jj1WXAsUhGZ0Ri2/4uJiRo0ahVwuJzg4mL///e+43Sdvrfz4448MHz6c4OBgVCoVl1xyCStWrDjnoC8UKaEKFt7fn3uHtKdHXAger5ff86v426KtXDZ3Ne+vOcgP24pZtquU3/IqyD5QybbDNdRaxSCrgnCuzqjlN27cOJRKJQUFBRQVFXHdddcRFRXF448/3mD5nJwcrr76al555RUMBgNz587l2muvZceOHXTo0KFJDqCtuyQ5jEuSwwCoszpZsrOUd349QEGlmVk/725wm+5xIfznoUFiGC1BOAeNTn7btm1j7dq17Nixg4SEBBISEpgyZQpvvvnmSZPf9OnTA16//vrrfP7556xatUokvwboNQrGXpLATb3j+WlHCRsOVFJnc2F3ubE63Li9XnYV17GzqJaFvx/ijv5JLR2yILRZjU5+O3fuJCwsjO7du/uXZWVl8dhjj1FdXU1oaOhp66itrcVkMhEdHX120V4kZFIJ16bHcm16bL11P+8o4cH5W3h52V6u6hFDWJCyBSIUhLav0cmvqKiIyMjIgGXHXpeUlDQq+f31r38lLS2NK664osH18+fP5+OPP/a/Li0tRalUkp2d3dgw2wyLxYLb7T7jYzMA3SMV7Cx3csXcX+gZpaBbhIJuEXKClW37NNhms7F9+/Y2N8tac3E6nVgslgvy83+2bDZbk9XV6OTX0N1d7x9zW3gbMcfFzJkzWbp0KWvWrDnphzszMxOl8nhL5rfffiMnJ4fk5OTGhtlmlJSUYLfbz+rYngqx8eDX+ym3uPilwM4vBXZkUgl9E4O5onMYiaEqyowOqq1uukdr6RChafoDaAZGo5HY2FiCgoJaOpRWwWg0cujQoQvy83+25PKm65rc6JpiYmKoqKgIWFZZWelfdypz587l1Vdf5ZdffjnlBMxpaWmkpaX5XzudTvbu3UtsbP3Tv7bObDZjNpvP6thiY2FT1xR2FtWy7o+7wP/Lr2J9QR3rC+rqle+VGMqtfRO4qmcMQcrW2689NzeXiIiIRp1FXAwqKiooLi6+ID//Z6tFkl+3bt2orKwkNzfXn6DWrl1LXFwcYWFhJ93ujTfe4LnnnmPZsmVkZGSce8QC4LsumJ5gID3BwIPDUqm2OPhhWwnfby3CZHcRF6pBp5Kzck8ZWw5Vs+VQNTN+yOWm3vE8PTpN3CkWLnqNTn4ZGRn079+fKVOm8Mknn1BcXMzcuXOZOHGiv8xnn33GokWL+PHHHwH48MMPmTx5Mq+99hoymYzNmzcDvpai+DVrWqFaJXcNSOKuAYF3gC0ONz9uL+bLjYfZVFjNJ9kFpMcbuKFXXAtFKgitQ6M7OUskEhYtWoTNZiMqKor+/ftz44038sQTT/jLmEwmjh496n+9ZcsWkpKSePXVV7nlllv8/xYvXty0RyGclFYp45Y+CXw1cSCzb+gBwBsr9+Nyi7mIhYvbGZ1AJyYmsnLlSmw2GwqFAplMFrB+4sSJAS3Bt956q2miFJrEzX0SeG/NQQoqzDz29Tbm3pzR4JwkgnAxOKurh2q1uqnjEM4DuVTC62MzuO2D//HNliJCNAqmj07jt/0V/LKnjPAgJRkJBtJi9YRqleK6oHBBa723/oRmkZ5g4L27ejPh4438e10B3+UUU21xNFhWLpOQEKolKVxLbIiG6BA1MSFqIoPVJEdoiQ/V4vV6+XVvOd/mFOHyeHnqqq4khWvP81EJwpkTye8iNDg1gtfHZfLwgi1UWxwkhWu5PiMOo93FtsM1HCw3U2t14nJ7ya8wk19hbrAehUyKWiHFaHP5l63dV86jl3XkirRo2keK/npC6yWS30Xqyu7RfDNxIE6Pl96JoQ1e+3O4PBwoN1FUY6Wo2spRo52jdTaO1trIrzRTXGPFaPPQJTqYMb3i2V1Sx3c5Rby4ZA8vLtlDkFKOXqMgRCMnJSKI1Cgdw7pEkZnQ8P4E4XwSye8ilp5gOOV6pVxK1xg9XWP0Da63ONzUWp3EhBy/Bnx9RhxfbDzEpoJqKkx2zA4XJbWwp9QIwJsr84gP1TCwQwRqhdTf6brW6qSo2EWepJTLeihIjdI10VEKQsNE8hPOmlYpQ6sMvOM/tHMkQzv7nvmuszox2lxUWxwcrDCz9XANS3aUcKTaypebDjdY5+ojB3lh+UEig1X0SwmnX0oYHq+XklobxTVWyox2qswOzA4X6fEGRnSNYniXKEK1YoAH4cyI5Cc0G71GgV6jIC5UQ/e4EK5Nj+UfV3dlc2E1+8tMOF0eLH8M3R+iVrAjdzc1MgObDhspN9r5cXsxP24vPmn9RdVWft5RgkwqoU9yGJentePytHYkhB2/4WJzujlYbkYhlxKqVWDQKJHLjp9zV5oc5FeaaResCthOuPCJ5CecV1KJJGAA1xOtMO6jd+9OhIaGkldm4vf8KjYfqkYlkxJj0BBn0BClVxERpEQmk5KdV8GK3WVsOFjJ//7499yPuUQFq+gWG0K1xcHO4tqTdujWKGQB86YkhwcxKDWCLtHBJIZrSQ4PIiFMg1RcoLwgieQntEqpUTpSo3Tc1i/xpGU6RukYPzAZk93Fqj1l/HdXKWv3V1BmtFO2twzwPQPdMUqH2+ulxuKk1urE7fElQ6vTTYhGQUKYlkNVFgoqzRRUBt7ZVitkdIzSEaJRYLK7cLg9tI8I4qoeMQzrEoVGIasXl9A2iOQntHk6lZxr0mO55o/BXwsqzewsqsWgVZKZYCBIVf9j7vJ4sTnd6P5Y5/Z42X6klv/lV1JYaeFQlYUDZSZK62zsKKoN2Da3uI4ft5egVcronRRK76QweicZSA4PIsagwev1cqjKwsFyM26PF71GQZfoYDHwbCsjkp9wwUkODyI5/NR9DOVSiT/xga+FmJloIDMx8A54ndVJXrkJi8ONVilDJpWwMb+Kn3aUsPVw1dLEoQAAEE5JREFUDWv3V7B2//Gh3uQyCXh9yfVEEgl0bhdM1xg9sQYNYUFKDBoFaqUMvVqBRAJWhxulXErvpNCA2ITmId5hQTgFvUZBr8TA8QXT4w3cO6Q95UY7Gwuq2FRQza6SOg5VmimtsyGVSEgM05ISEYRaIaPSZGdncR17So3+Lj+nIpdK6BEfQkZsEOEuN0H5VSzdVcqOI7VEBauID9VgtLvIKzNRWmvDaHNhcbhICNPSKzGUbrF6EsO1mO0u9h01oVfLSQoPokOkTnQ8P4FIfoJwliKDVVzVI4arehwfzNfu8iDB10fyRA6Xh21HaiioMFNca6PW4qTG6sDu9PinItUoZVSbHWw9UkPOId8/ADatb1Q8eWUm8spMpyzTPjKIMZnx9E0OpeyPTutSqYQInYqoYBWdo4PPe7chi8ONUiYNuAt/PojkJwhNSCVveJQ4pVx60rvcf2Z2uNiYX83KnYdZu+8oXoWGy9PaMTg1gmqLk0NVFoJUMjpGBZMQpkGvVqCSS9lfZmLLoWr2H/U9laOSS+nYLhiz3UVBhZldxXUcLDczd9nek+5bKZdyRbdo/+RZ5SY7hyot7C6pY99RE1F6FVd2j+aqHjEkNrJr0IFyE//Lr/r/9u49KKry/wP4ey+wsLssIDcXlCVTHJGQYRGhTEKXvshYYWneGA2dvExlXys1y7FpxguGDmgzTpm3NJ3K0ZoUNGvKCzQmmrE4oq7+UOISurDLbWFZdp/fH8bR/QK6JHCQ83nN+Md5znP2fHY98+bsOXueBxWmZlSam9Ha5uBe+//uNMHYaIVMKkbUEB+MDlahwtyMSxV1qKprwSCFOwKUMvh7yeAmEeGasRXPu7TXh6PwI6SfUbhL8dzIAET6iZA0qA5JSc+5tF30UB9EP+CpHbuDIf+6Ed9frMCtGguCVDKovT3hYAzGRiuq6lpwscyMI0WVOFLU+e8rq+qaUfSXGZnHrkDuLoGfUgYRgIaWNjRYbZBJJBgdokKYnwJKDynyDUZcq37wV32ZVIxWuwOFN2tReLPWaV1tUytqm1px9Z/XqG9u6+wl/hUKP0IEQiIWITE8AInhAV32qaprxjeF5cg33IG33A3+ShmCfTwRHuSFkUFeMNxuQF5xFX65cvvutcZai9P2bfY2nCutxbnSeyHmI3fDhBEBGBagxFBfT3j881SQr9wdYX5yqL09Ud9iw8UyM65VN2CwtweeCvGGxk+O2qZWGBusMDa1wmZ3YNU5WY99HhR+hBCO2tsT/9WNwH91IzpdPyxAgf+Mvjvvdn2zDVX/3ODxU7hDKZOi0dqGSxV1KDc1o67ZhsgQFRKG+T/0ep63p5vTo5Ht/JUy+CvvBZ6/vOd+V0nhRwj5V9ofX7zfIKk7JjzgzLI/cXkOD0IIGUgo/AghgkThRwgRJAo/QoggUfgRQgSJwo8QIkgUfoQQQaLwI4QIUrfCr7q6GmlpafDw8IC/vz8++OADOByOB25z9uxZxMTEQCqVYsSIETh48OAjFUwIIT2hW+E3a9YsmEwmFBcX49ChQ9i+fTuys7O77G80GpGamoqkpCSUlpbinXfewZw5c3DhwoVHLpwQQh6Fy+FXXFyMX3/9FZ9++ilGjBiBxMRELF++HFu3bu1ym3379sHd3R1ZWVkYOnQolixZgsTERGzbtq1HiieEkH/L5fDT6/Xw9fVFVFQU15aYmIiysjKYzeZOtykuLsazzz4Lsfjebp577jno9fpHKJkQQh6dywMbVFZWIjAw0KktICCAW+fj03EcscrKSjz55JMdtqms7HyssP3792PPnj3c8o0bN1BbW4sJEya4WuZjo7W1FQ6HAx4eHnyX0m9YLBbIZDJIJDQjGgDY7XZYrVbI5TSfcLvLly/D19f34R1d4HL4McYg+p/5S9vP6Lq66dFZu1gs7rL/qFGjMH36dG7ZYDCgtbUVWq3W1TIfG7m5ubh9+zYyMjL4LqXfWLFiBRYtWtThD6ZQXblyBfv27cO6dev4LqXfyMrKgkLRM/OQuBx+arUaRqPRqa19OTg4uMttampqOmyjVqs77R8TE4OYmBhXS3qsVVVV4caNG5g7dy7fpfQba9euRWpqKsaNG8d3Kf3CqVOncPToUTpG7vPTTz8hIiKiR17L5Wt+ERERMBqNuHr13vj/BQUFUKvVXZ6GRkREoKCgAIzdm8YvPz8fo0ePfoSSCSHk0bkcfjExMYiNjcXy5cthNptx5coVbN68GQsXLuS+Dh84cAAvv/wyt016ejpqa2uRmZkJq9WKw4cP48SJE3j99dd7/p0QQkg3uBx+IpEI3377LYxGI/z9/REVFYWUlBR8+OGHXJ/a2lpcv36dWw4JCcGhQ4ewbds2KBQKLFiwAFu2bBmQNzC6Kz4+HikpKXyX0a8sXLiwy0soQhQaGor58+fzXUa/MmXKFMTGxvbIa4nY/d9JXdTQ0AA3N7du3ak0mUxQqVR0J48Q0i/8q/AjhJDHHQ1sQAgRJAo/Qogg0dSVfSw3NxcVFRVObU8//TQiIyN5qqjvlZeX48KFC6iurkZKSgpCQ0M79MnPz8cPP/wADw8PzJgxY0D/PKqtrQ2XLl2CXq+HWCxGenq60/ry8nLk5eU5tcnl8g79BgqbzYZffvkFv//+OywWCyIjIzFjxgy4uTlPk2kwGLB//340NjYiNTUVEydO7N6OGOlTOp2ODR8+nOl0Ou7f4cOH+S6rz3zzzTcMAAsJCWEA2JEjRzr02blzJ/Pw8GBvvPEGS09PZzKZjJ08eZKHavtGcnIyk0qlLCgoiKnV6g7rf/zxR+bm5uZ0zMyYMYOHSvvGu+++y9RqNZs9ezZ766232JAhQ5hWq2UWi4XrU1hYyORyOZs+fTp7++23mUKhYDk5Od3aD4VfH9PpdGz9+vV8l8GbO3fusKqqKma32zsNv+bmZubr68uys7O5tsWLFzOtVtvXpfYZg8HAmpub2eeff95l+Pn6+vJQGT+uXr3KrFYrt1xVVcXkcjnbu3cv15aUlMRmzpzJLe/evZspFApmNptd3g9d8+NJTU3NQweCHYj8/f0xePDgLtcXFhbCZDJh9uzZXFv7GJD/+3jlQDF8+HCXfjZmsVjQ1NTUBxXxKzw8HO7u7tzy4MGDMWjQIO5R2ZaWFpw+fRpz5szh+kyfPh02mw35+fku74fCjwdr1qyBv78/lEolXnvtNdTW1vJdUr9RXl4OLy8vpxGEhg0bxq0TKrPZDJVKBaVSiYiICBw7dozvkvrMzz//jL///hvJyckA7o4WZbfbueMCABQKBYKCgrp1jFD49bGVK1fixo0bsFgsOH78OPLz87Fw4UK+y+o3TCYTlEqlU5uXlxcACPaPxMiRI3HmzBnU19ejoqICycnJmDp1Ki5fvsx3ab2urKwMc+fOxapVq7ibXiaTCQA6HCcqlapbxwiFXx/T6XQIDQ2Fp6cnJkyYgKysLHz//fewWCx8l9Yv+Pn5ob6+3qmtrq4OwL3xI4VGo9HgmWeegVwuR3BwMHJycqDRaHDo0CG+S+tVlZWVmDRpElJTU/Hxxx9z7X5+fgDQ4Tgxm83dOkYo/HgWFBQEu93e4T9SqIYOHYqmpiZUVVVxbdevX4dIJEJISAiPlfUfIpEIgYGBXY6gPhBUV1dDp9MhISEB27dvdxpLVK1WQyqVOo0jUF9fj9u3b2PIkCEu74PCrw9ZrVa0tLRwy4wx7Ny5E6GhoQ+8CSAksbGxCAwMdBrRe8+ePUhISMCgQYP4K4xH7We+7f78808UFhZi7NixPFXUu+7cuQOdToeIiAjs2rXLaRoMAJDJZJg0aZLTMbJ//37I5XKMHz/e9R31yL1p4pJr164xX19f9uKLL7KMjAz21FNPMZVKxU6cOMF3aX2mtLSUabVaptVqGQA2fPhwptVq2VdffcX1+frrr5mHhwdLT09nL7zwAlMqlezs2bM8Vt27srOzmVarZRqNhrm5uXGfT2NjI2OMsalTp7Jx48axuXPnsrS0NCaTydi0adOYw+HgufLesWjRIgaARUVFcZ+FVqtlmzdv5vro9Xrm4+PDnn/+eTZv3jzm6enJduzY0a390MAGfchms+HMmTMoKipCfX09wsLCkJqaKqhrWQ0NDTh+/HiH9jFjxiA8PJxb1uv1OHr0KGQyGV555RWEhYX1YZV9q6ioCNeuXevQnpaWBjc3N5SWluLUqVMoKyuDSqVCbGxs985wHjOFhYW4efNmh/bw8HCMGTOGW66oqMDBgwfR2NiIlJSUbg91ReFHCBEkuuZHCBEkCj9CiCBR+BFCBInCjxAiSBR+hBBBovAjhAgShR8ZsM6fP4+cnBy+yyD9FIUfGbD0ej127drFdxmkn6LwI4QIEoUf6VV5eXlIS0tDZGQkXnrpJfzxxx/cutOnT2PZsmU4fPgw4uPjERsbi40bN+L+h44aGxuxfPlyxMXFIT4+HqtWreow/Nfu3bsxefJkjBo1ChMnTsTRo0ed1ufm5mL8+PGIjo7GRx99BLvd3rtvmjwWaPY20mu+++47ZGRkYNOmTYiLi8PJkyeRmJgIvV6PJ554Ardu3cKOHTtQVFSELVu2oKamBosWLYLNZsPq1asBABkZGTAYDMjJyYHdbsfSpUtRUVGBvXv3AgA2bNiArKwsbNq0CWPHjsWtW7ecwrGsrAyfffYZ1q1bB5PJhAULFkCj0WD+/Pm8fCakH+nBwRgIcaLVatnGjRud2mbOnMlWrlzJGGNs7969TCwWs5s3b3LrDxw4wHx8fJjD4WAGg4GJRCJWVFTErf/tt9+YWCxmf/31F7Pb7czLy4vt2rWr0/3v3LmTeXp6Ok1qs3TpUjZr1qyefJvkMUVnfqRXOBwOXL58Gbm5uTh//jwAoKmpCSUlJbBarVw/tVoNjUbDLcfHx8NsNqOyshIlJSVQKBSIiori1sfFxUEikaCkpAQ2mw0NDQ1ISkrqso6wsDB4e3tzy8HBwYIY/p08HIUf6VWTJ0/uMNRQ+zDkADpcf2tflkqlEIvFHWa4Y3enW4VEIoFEIun0Ne4nldIhTjpHRwbpFWKxGFFRUdxw5F2prq7G1atXMXLkSAB3b4IEBQUhMDAQkZGRaGlpwblz5xAXFwcAOHPmDAAgIiICQUFB8PPzw7Fjx/Dmm2/2/psiAwqFH+k169evx5QpUyCRSJCcnIyWlhYUFBQgOjqam5dXpVJh3rx5WL16NYxGI1asWIE1a9ZAJBJBo9EgIyMDs2fPxoYNG9DW1ob3338fixcv5ob9X7t2Ld577z00NjZi7NixKCsrA2OMbmiQh6LwI71m4sSJKCgowBdffIHMzEzu+l1CQgLXR61WIzMzE9nZ2WhtbcUnn3ziFFzbtm3D1q1b8eWXX0IsFmPZsmVOZ3mLFy9GSEgIDh48iLy8PISEhGDJkiUA7k75OG3aNKeaoqOjIZPJevmdk8cBjeRMeLNv3z6sX78eJSUlfJdCBIh+5EwIESQ68yO8MRgMuHjxIl599VW+SyECROFHCBEk+tpLCBEkCj9CiCBR+BFCBInCjxAiSBR+hBBBovAjhAgShR8hRJAo/AghgvT/2Yq9l2gCd5EAAAAASUVORK5CYII=;" vertex="1" parent="1">
          <mxGeometry x="360" y="20" width="319" height="250" as="geometry" />
        </mxCell>
        <mxCell id="L5BF_w7w9N1c1NZYFQ7X-3" value="&lt;b&gt;BiRNN Classifier&lt;/b&gt;" style="text;html=1;strokeColor=none;fillColor=none;align=center;verticalAlign=middle;whiteSpace=wrap;rounded=0;" vertex="1" parent="1">
          <mxGeometry x="480" y="260" width="120" height="30" as="geometry" />
        </mxCell>
        <mxCell id="L5BF_w7w9N1c1NZYFQ7X-4" value="&lt;b&gt;CNN Classifier&lt;/b&gt;" style="text;html=1;strokeColor=none;fillColor=none;align=center;verticalAlign=middle;whiteSpace=wrap;rounded=0;" vertex="1" parent="1">
          <mxGeometry x="134.5" y="260" width="110" height="30" as="geometry" />
        </mxCell>
      </root>
    </mxGraphModel>
  </diagram>
</mxfile>
